<svg xmlns="http://www.w3.org/2000/svg" viewBox="0 0 604 906" width="604" height="906">
	<defs>
		<clipPath clipPathUnits="userSpaceOnUse" id="cp1">
			<path d="M-958 -169L796 -169L796 1073L-958 1073Z" />
		</clipPath>
		<clipPath clipPathUnits="userSpaceOnUse" id="cp2">
			<path d="M603.45 905.09L0.88 905.09L0.88 0.75L603.45 0.75L603.45 905.09Z" />
		</clipPath>
	</defs>
	<style>
		tspan { white-space:pre }
		.shp0 { fill: #4e7631 } 
	</style>
	<g id="Page 1" clip-path="url(#cp1)">
		<g id="Mask" clip-path="url(#cp2)">
			<path id="Path 8" class="shp0" d="M768.65 415.7C771.53 366.41 764.09 316.54 746.16 270.11L680 295.65C706.17 363.42 704.35 440.4 675.01 506.85L675.06 506.87C654.32 524.96 632.64 543.01 610.33 561.31C539.32 619.54 462.07 682.9 403.43 760.68L403.43 447.14C551.68 228.28 764.57 51.27 1006.94 -53.82L978.73 -118.88C901.54 -85.41 827.2 -45 756.74 1.47C769.71 -90.84 799.12 -180.99 843.35 -262.93L780.95 -296.61C722.54 -188.41 687.82 -67.09 679.96 55.66C576.54 133.63 483.12 225.09 403.43 326.87L403.43 54.15C530.54 -136.05 675.25 -316 833.61 -480.75L782.48 -529.89C717.34 -462.12 654.47 -391.82 594.13 -319.34C560.68 -419.7 522.64 -519.14 480.67 -615.84L415.62 -587.6C462.75 -479.02 504.82 -366.9 540.86 -253.94C477.73 -174.75 417.61 -93.14 360.83 -9.53C307.42 -87.32 251.12 -163.34 192.19 -237.25C228.24 -350.21 270.31 -462.32 317.44 -570.92L252.38 -599.15C210.41 -502.45 172.38 -403.01 138.92 -302.65C78.58 -375.14 15.71 -445.44 -49.43 -513.2L-100.55 -464.05C58.8 -298.28 204.34 -117.1 332.04 74.43L332.51 74.11L332.51 334.14C251.6 229.46 156.23 135.52 50.38 55.7C42.52 -67.06 7.8 -188.39 -50.61 -296.61L-113.02 -262.93C-68.78 -180.97 -39.37 -90.82 -26.4 1.5C-96.87 -44.98 -171.2 -85.41 -248.4 -118.88L-276.61 -53.82C-31.16 52.61 184.04 232.79 332.51 455.49L332.51 768.24C273.25 686.99 193.31 621.42 120.01 561.31C97.7 543.01 76.02 524.96 55.28 506.87L55.32 506.85C25.98 440.4 24.16 363.42 50.33 295.65L-15.83 270.11C-33.76 316.54 -41.2 366.41 -38.31 415.7C-80.75 367.66 -113.72 316.47 -132 257.63L-199.73 278.68C-156.53 417.66 -45.11 517.61 75.04 616.14C175.51 698.54 289.38 791.93 332.49 917.33L332.51 917.32L332.51 988L403.43 988L403.43 902.3C450.15 784.4 558.89 695.21 655.3 616.14C775.44 517.61 886.87 417.66 930.06 278.68L862.34 257.63C844.05 316.47 811.08 367.66 768.65 415.7Z" />
		</g>
	</g>
</svg>