<svg xmlns="http://www.w3.org/2000/svg" viewBox="0 0 634 1016" width="634" height="1016">
	<defs>
		<clipPath clipPathUnits="userSpaceOnUse" id="cp1">
			<path d="M-826 0L2389 0L2389 1017L-826 1017Z" />
		</clipPath>
	</defs>
	<style>
		tspan { white-space:pre }
		.shp0 { fill: #ffffff } 
	</style>
	<g id="Page 1" clip-path="url(#cp1)">
		<path id="Path 11" class="shp0" d="M567.21 63.87C565.88 66.52 564.54 69.17 563.2 71.82C587.49 82.67 609.48 98.91 626.75 119.04L631.76 114.74L633.79 112.93C615.98 92.9 592.41 75.48 567.21 63.87ZM567.21 54.97C565.88 52.33 564.54 49.68 563.2 47.03C587.49 36.18 609.48 19.94 626.75 -0.19L631.76 4.1L633.79 5.92C615.98 25.94 592.41 43.37 567.21 54.97ZM567.21 192.01C565.88 194.66 564.54 197.31 563.2 199.95C587.49 210.8 609.48 227.05 626.75 247.18L631.76 242.88L633.79 241.06C615.98 221.04 592.41 203.62 567.21 192.01ZM567.21 183.11C565.88 180.46 564.54 177.82 563.2 175.17C587.49 164.32 609.48 148.08 626.75 127.94L631.76 132.24L633.79 134.06C615.98 154.08 592.41 171.5 567.21 183.11ZM567.21 320.15C565.88 322.8 564.54 325.44 563.2 328.09C587.49 338.94 609.48 355.18 626.75 375.32L631.76 371.02L633.79 369.2C615.98 349.18 592.41 331.76 567.21 320.15ZM567.21 311.25C565.88 308.6 564.54 305.95 563.2 303.31C587.49 292.46 609.48 276.21 626.75 256.08L631.76 260.38L633.79 262.2C615.98 282.22 592.41 299.64 567.21 311.25ZM567.21 448.29C565.88 450.93 564.54 453.58 563.2 456.23C587.49 467.08 609.48 483.32 626.75 503.45L631.76 499.15L633.79 497.34C615.98 477.31 592.41 459.89 567.21 448.29ZM567.21 439.39C565.88 436.74 564.54 434.09 563.2 431.44C587.49 420.59 609.48 404.35 626.75 384.22L631.76 388.51L633.79 390.33C615.98 410.36 592.41 427.78 567.21 439.39ZM567.21 576.42C565.88 579.07 564.54 581.72 563.2 584.36C587.49 595.21 609.48 611.45 626.75 631.59L631.76 627.29L633.79 625.47C615.98 605.45 592.41 588.03 567.21 576.42ZM567.21 567.52C565.88 564.87 564.54 562.22 563.2 559.58C587.49 548.73 609.48 532.49 626.75 512.35L631.76 516.65L633.79 518.47C615.98 538.49 592.41 555.91 567.21 567.52ZM567.21 704.56C565.88 707.21 564.54 709.85 563.2 712.5C587.49 723.35 609.48 739.59 626.75 759.72L631.76 755.43L633.79 753.61C615.98 733.59 592.41 716.16 567.21 704.56ZM567.21 695.66C565.88 693.01 564.54 690.36 563.2 687.72C587.49 676.87 609.48 660.62 626.75 640.49L631.76 644.79L633.79 646.61C615.98 666.63 592.41 684.05 567.21 695.66ZM567.21 832.7C565.88 835.34 564.54 837.99 563.2 840.64C587.49 851.49 609.48 867.73 626.75 887.86L631.76 883.57L633.79 881.75C615.98 861.72 592.41 844.3 567.21 832.7ZM567.21 823.79C565.88 821.15 564.54 818.5 563.2 815.85C587.49 805 609.48 788.76 626.75 768.63L631.76 772.92L633.79 774.74C615.98 794.77 592.41 812.19 567.21 823.79ZM567.21 960.83C565.88 963.48 564.54 966.13 563.2 968.77C587.49 979.62 609.48 995.87 626.75 1016L631.76 1011.7L633.79 1009.88C615.98 989.86 592.41 972.44 567.21 960.83ZM567.21 951.93C565.88 949.28 564.54 946.64 563.2 943.99C587.49 933.14 609.48 916.9 626.75 896.76L631.76 901.06L633.79 902.88C615.98 922.9 592.41 940.32 567.21 951.93ZM454.69 63.87C453.36 66.52 452.02 69.17 450.68 71.82C474.97 82.67 496.96 98.91 514.23 119.04L519.24 114.74L521.27 112.93C503.46 92.9 479.9 75.48 454.69 63.87ZM454.69 54.97C453.36 52.33 452.02 49.68 450.68 47.03C474.97 36.18 496.96 19.94 514.23 -0.19L519.24 4.1L521.27 5.92C503.46 25.94 479.9 43.37 454.69 54.97ZM454.69 192.01C453.36 194.66 452.02 197.31 450.68 199.95C474.97 210.8 496.96 227.05 514.23 247.18L519.24 242.88L521.27 241.06C503.46 221.04 479.9 203.62 454.69 192.01ZM454.69 183.11C453.36 180.46 452.02 177.82 450.68 175.17C474.97 164.32 496.96 148.08 514.23 127.94L519.24 132.24L521.27 134.06C503.46 154.08 479.9 171.5 454.69 183.11ZM454.69 320.15C453.36 322.8 452.02 325.44 450.68 328.09C474.97 338.94 496.96 355.18 514.23 375.32L519.24 371.02L521.27 369.2C503.46 349.18 479.9 331.76 454.69 320.15ZM454.69 311.25C453.36 308.6 452.02 305.95 450.68 303.31C474.97 292.46 496.96 276.21 514.23 256.08L519.24 260.38L521.27 262.2C503.46 282.22 479.9 299.64 454.69 311.25ZM454.69 448.29C453.36 450.93 452.02 453.58 450.68 456.23C474.97 467.08 496.96 483.32 514.23 503.45L519.24 499.15L521.27 497.34C503.46 477.31 479.9 459.89 454.69 448.29ZM454.69 439.39C453.36 436.74 452.02 434.09 450.68 431.44C474.97 420.59 496.96 404.35 514.23 384.22L519.24 388.51L521.27 390.33C503.46 410.36 479.9 427.78 454.69 439.39ZM454.69 576.42C453.36 579.07 452.02 581.72 450.68 584.36C474.97 595.21 496.96 611.45 514.23 631.59L519.24 627.29L521.27 625.47C503.46 605.45 479.9 588.03 454.69 576.42ZM454.69 567.52C453.36 564.87 452.02 562.22 450.68 559.58C474.97 548.73 496.96 532.49 514.23 512.35L519.24 516.65L521.27 518.47C503.46 538.49 479.9 555.91 454.69 567.52ZM454.69 704.56C453.36 707.21 452.02 709.85 450.68 712.5C474.97 723.35 496.96 739.59 514.23 759.72L519.24 755.43L521.27 753.61C503.46 733.59 479.9 716.16 454.69 704.56ZM454.69 695.66C453.36 693.01 452.02 690.36 450.68 687.72C474.97 676.87 496.96 660.62 514.23 640.49L519.24 644.79L521.27 646.61C503.46 666.63 479.9 684.05 454.69 695.66ZM454.69 832.7C453.36 835.34 452.02 837.99 450.68 840.64C474.97 851.49 496.96 867.73 514.23 887.86L519.24 883.57L521.27 881.75C503.46 861.72 479.9 844.3 454.69 832.7ZM454.69 823.79C453.36 821.15 452.02 818.5 450.68 815.85C474.97 805 496.96 788.76 514.23 768.63L519.24 772.92L521.27 774.74C503.46 794.77 479.9 812.19 454.69 823.79ZM454.69 960.83C453.36 963.48 452.02 966.13 450.68 968.77C474.97 979.62 496.96 995.87 514.23 1016L519.24 1011.7L521.27 1009.88C503.46 989.86 479.9 972.44 454.69 960.83ZM454.69 951.93C453.36 949.28 452.02 946.64 450.68 943.99C474.97 933.14 496.96 916.9 514.23 896.76L519.24 901.06L521.27 902.88C503.46 922.9 479.9 940.32 454.69 951.93ZM342.17 63.87C340.84 66.52 339.5 69.17 338.16 71.82C362.45 82.67 384.44 98.91 401.71 119.04L406.72 114.74L408.75 112.93C390.94 92.9 367.37 75.48 342.17 63.87ZM342.17 54.97C340.84 52.33 339.5 49.68 338.16 47.03C362.45 36.18 384.44 19.94 401.71 -0.19L406.72 4.1L408.75 5.92C390.94 25.94 367.37 43.37 342.17 54.97ZM342.17 192.01C340.84 194.66 339.5 197.31 338.16 199.95C362.45 210.8 384.44 227.05 401.71 247.18L406.72 242.88L408.75 241.06C390.94 221.04 367.37 203.62 342.17 192.01ZM342.17 183.11C340.84 180.46 339.5 177.82 338.16 175.17C362.45 164.32 384.44 148.08 401.71 127.94L406.72 132.24L408.75 134.06C390.94 154.08 367.37 171.5 342.17 183.11ZM342.17 320.15C340.84 322.8 339.5 325.44 338.16 328.09C362.45 338.94 384.44 355.18 401.71 375.32L406.72 371.02L408.75 369.2C390.94 349.18 367.37 331.76 342.17 320.15ZM342.17 311.25C340.84 308.6 339.5 305.95 338.16 303.31C362.45 292.46 384.44 276.21 401.71 256.08L406.72 260.38L408.75 262.2C390.94 282.22 367.37 299.64 342.17 311.25ZM342.17 448.29C340.84 450.93 339.5 453.58 338.16 456.23C362.45 467.08 384.44 483.32 401.71 503.45L406.72 499.15L408.75 497.34C390.94 477.31 367.37 459.89 342.17 448.29ZM342.17 439.39C340.84 436.74 339.5 434.09 338.16 431.44C362.45 420.59 384.44 404.35 401.71 384.22L406.72 388.51L408.75 390.33C390.94 410.36 367.37 427.78 342.17 439.39ZM342.17 576.42C340.84 579.07 339.5 581.72 338.16 584.36C362.45 595.21 384.44 611.45 401.71 631.59L406.72 627.29L408.75 625.47C390.94 605.45 367.37 588.03 342.17 576.42ZM342.17 567.52C340.84 564.87 339.5 562.22 338.16 559.58C362.45 548.73 384.44 532.49 401.71 512.35L406.72 516.65L408.75 518.47C390.94 538.49 367.37 555.91 342.17 567.52ZM342.17 704.56C340.84 707.21 339.5 709.85 338.16 712.5C362.45 723.35 384.44 739.59 401.71 759.72L406.72 755.43L408.75 753.61C390.94 733.59 367.37 716.16 342.17 704.56ZM342.17 695.66C340.84 693.01 339.5 690.36 338.16 687.72C362.45 676.87 384.44 660.62 401.71 640.49L406.72 644.79L408.75 646.61C390.94 666.63 367.37 684.05 342.17 695.66ZM342.17 832.7C340.84 835.34 339.5 837.99 338.16 840.64C362.45 851.49 384.44 867.73 401.71 887.86L406.72 883.57L408.75 881.75C390.94 861.72 367.37 844.3 342.17 832.7ZM342.17 823.79C340.84 821.15 339.5 818.5 338.16 815.85C362.45 805 384.44 788.76 401.71 768.63L406.72 772.92L408.75 774.74C390.94 794.77 367.37 812.19 342.17 823.79ZM342.17 960.83C340.84 963.48 339.5 966.13 338.16 968.77C362.45 979.62 384.44 995.87 401.71 1016L406.72 1011.7L408.75 1009.88C390.94 989.86 367.37 972.44 342.17 960.83ZM342.17 951.93C340.84 949.28 339.5 946.64 338.16 943.99C362.45 933.14 384.44 916.9 401.71 896.76L406.72 901.06L408.75 902.88C390.94 922.9 367.37 940.32 342.17 951.93ZM229.65 63.87C228.32 66.52 226.98 69.17 225.64 71.82C249.93 82.67 271.92 98.91 289.19 119.04L294.2 114.74L296.23 112.93C278.42 92.9 254.85 75.48 229.65 63.87ZM229.65 54.97C228.32 52.33 226.98 49.68 225.64 47.03C249.93 36.18 271.92 19.94 289.19 -0.19L294.2 4.1L296.23 5.92C278.42 25.94 254.85 43.37 229.65 54.97ZM229.65 192.01C228.32 194.66 226.98 197.31 225.64 199.95C249.93 210.8 271.92 227.05 289.19 247.18L294.2 242.88L296.23 241.06C278.42 221.04 254.85 203.62 229.65 192.01ZM229.65 183.11C228.32 180.46 226.98 177.82 225.64 175.17C249.93 164.32 271.92 148.08 289.19 127.94L294.2 132.24L296.23 134.06C278.42 154.08 254.85 171.5 229.65 183.11ZM229.65 320.15C228.32 322.8 226.98 325.44 225.64 328.09C249.93 338.94 271.92 355.18 289.19 375.32L294.2 371.02L296.23 369.2C278.42 349.18 254.85 331.76 229.65 320.15ZM229.65 311.25C228.32 308.6 226.98 305.95 225.64 303.31C249.93 292.46 271.92 276.21 289.19 256.08L294.2 260.38L296.23 262.2C278.42 282.22 254.85 299.64 229.65 311.25ZM229.65 448.29C228.32 450.93 226.98 453.58 225.64 456.23C249.93 467.08 271.92 483.32 289.19 503.45L294.2 499.15L296.23 497.34C278.42 477.31 254.85 459.89 229.65 448.29ZM229.65 439.39C228.32 436.74 226.98 434.09 225.64 431.44C249.93 420.59 271.92 404.35 289.19 384.22L294.2 388.51L296.23 390.33C278.42 410.36 254.85 427.78 229.65 439.39ZM229.65 576.42C228.32 579.07 226.98 581.72 225.64 584.36C249.93 595.21 271.92 611.45 289.19 631.59L294.2 627.29L296.23 625.47C278.42 605.45 254.85 588.03 229.65 576.42ZM229.65 567.52C228.32 564.87 226.98 562.22 225.64 559.58C249.93 548.73 271.92 532.49 289.19 512.35L294.2 516.65L296.23 518.47C278.42 538.49 254.85 555.91 229.65 567.52ZM229.65 704.56C228.32 707.21 226.98 709.85 225.64 712.5C249.93 723.35 271.92 739.59 289.19 759.72L294.2 755.43L296.23 753.61C278.42 733.59 254.85 716.16 229.65 704.56ZM229.65 695.66C228.32 693.01 226.98 690.36 225.64 687.72C249.93 676.87 271.92 660.62 289.19 640.49L294.2 644.79L296.23 646.61C278.42 666.63 254.85 684.05 229.65 695.66ZM229.65 832.7C228.32 835.34 226.98 837.99 225.64 840.64C249.93 851.49 271.92 867.73 289.19 887.86L294.2 883.57L296.23 881.75C278.42 861.72 254.85 844.3 229.65 832.7ZM229.65 823.79C228.32 821.15 226.98 818.5 225.64 815.85C249.93 805 271.92 788.76 289.19 768.63L294.2 772.92L296.23 774.74C278.42 794.77 254.85 812.19 229.65 823.79ZM229.65 960.83C228.32 963.48 226.98 966.13 225.64 968.77C249.93 979.62 271.92 995.87 289.19 1016L294.2 1011.7L296.23 1009.88C278.42 989.86 254.85 972.44 229.65 960.83ZM229.65 951.93C228.32 949.28 226.98 946.64 225.64 943.99C249.93 933.14 271.92 916.9 289.19 896.76L294.2 901.06L296.23 902.88C278.42 922.9 254.85 940.32 229.65 951.93ZM117.13 63.87C115.8 66.52 114.46 69.17 113.12 71.82C137.41 82.67 159.4 98.91 176.67 119.04L181.68 114.74L183.71 112.93C165.9 92.9 142.33 75.48 117.13 63.87ZM117.13 54.97C115.8 52.33 114.46 49.68 113.12 47.03C137.41 36.18 159.4 19.94 176.67 -0.19L181.68 4.1L183.71 5.92C165.9 25.94 142.33 43.37 117.13 54.97ZM117.13 192.01C115.8 194.66 114.46 197.31 113.12 199.95C137.41 210.8 159.4 227.05 176.67 247.18L181.68 242.88L183.71 241.06C165.9 221.04 142.33 203.62 117.13 192.01ZM117.13 183.11C115.8 180.46 114.46 177.82 113.12 175.17C137.41 164.32 159.4 148.08 176.67 127.94L181.68 132.24L183.71 134.06C165.9 154.08 142.33 171.5 117.13 183.11ZM117.13 320.15C115.8 322.8 114.46 325.44 113.12 328.09C137.41 338.94 159.4 355.18 176.67 375.32L181.68 371.02L183.71 369.2C165.9 349.18 142.33 331.76 117.13 320.15ZM117.13 311.25C115.8 308.6 114.46 305.95 113.12 303.31C137.41 292.46 159.4 276.21 176.67 256.08L181.68 260.38L183.71 262.2C165.9 282.22 142.33 299.64 117.13 311.25ZM117.13 448.29C115.8 450.93 114.46 453.58 113.12 456.23C137.41 467.08 159.4 483.32 176.67 503.45L181.68 499.15L183.71 497.34C165.9 477.31 142.33 459.89 117.13 448.29ZM117.13 439.39C115.8 436.74 114.46 434.09 113.12 431.44C137.41 420.59 159.4 404.35 176.67 384.22L181.68 388.51L183.71 390.33C165.9 410.36 142.33 427.78 117.13 439.39ZM117.13 576.42C115.8 579.07 114.46 581.72 113.12 584.36C137.41 595.21 159.4 611.45 176.67 631.59L181.68 627.29L183.71 625.47C165.9 605.45 142.33 588.03 117.13 576.42ZM117.13 567.52C115.8 564.87 114.46 562.22 113.12 559.58C137.41 548.73 159.4 532.49 176.67 512.35L181.68 516.65L183.71 518.47C165.9 538.49 142.33 555.91 117.13 567.52ZM117.13 704.56C115.8 707.21 114.46 709.85 113.12 712.5C137.41 723.35 159.4 739.59 176.67 759.72L181.68 755.43L183.71 753.61C165.9 733.59 142.33 716.16 117.13 704.56ZM117.13 695.66C115.8 693.01 114.46 690.36 113.12 687.72C137.41 676.87 159.4 660.62 176.67 640.49L181.68 644.79L183.71 646.61C165.9 666.63 142.33 684.05 117.13 695.66ZM117.13 832.7C115.8 835.34 114.46 837.99 113.12 840.64C137.41 851.49 159.4 867.73 176.67 887.86L181.68 883.57L183.71 881.75C165.9 861.72 142.33 844.3 117.13 832.7ZM117.13 823.79C115.8 821.15 114.46 818.5 113.12 815.85C137.41 805 159.4 788.76 176.67 768.63L181.68 772.92L183.71 774.74C165.9 794.77 142.33 812.19 117.13 823.79ZM117.13 960.83C115.8 963.48 114.46 966.13 113.12 968.77C137.41 979.62 159.4 995.87 176.67 1016L181.68 1011.7L183.71 1009.88C165.9 989.86 142.33 972.44 117.13 960.83ZM117.13 951.93C115.8 949.28 114.46 946.64 113.12 943.99C137.41 933.14 159.4 916.9 176.67 896.76L181.68 901.06L183.71 902.88C165.9 922.9 142.33 940.32 117.13 951.93ZM4.61 63.87C3.28 66.52 1.94 69.17 0.6 71.82C24.89 82.67 46.88 98.91 64.15 119.04L69.16 114.74L71.19 112.93C53.37 92.9 29.81 75.48 4.61 63.87ZM4.61 54.97C3.28 52.33 1.94 49.68 0.6 47.03C24.89 36.18 46.88 19.94 64.15 -0.19L69.16 4.1L71.19 5.92C53.37 25.94 29.81 43.37 4.61 54.97ZM4.61 192.01C3.28 194.66 1.94 197.31 0.6 199.95C24.89 210.8 46.88 227.05 64.15 247.18L69.16 242.88L71.19 241.06C53.37 221.04 29.81 203.62 4.61 192.01ZM4.61 183.11C3.28 180.46 1.94 177.82 0.6 175.17C24.89 164.32 46.88 148.08 64.15 127.94L69.16 132.24L71.19 134.06C53.37 154.08 29.81 171.5 4.61 183.11ZM4.61 320.15C3.28 322.8 1.94 325.44 0.6 328.09C24.89 338.94 46.88 355.18 64.15 375.32L69.16 371.02L71.19 369.2C53.37 349.18 29.81 331.76 4.61 320.15ZM4.61 311.25C3.28 308.6 1.94 305.95 0.6 303.31C24.89 292.46 46.88 276.21 64.15 256.08L69.16 260.38L71.19 262.2C53.37 282.22 29.81 299.64 4.61 311.25ZM4.61 448.29C3.28 450.93 1.94 453.58 0.6 456.23C24.89 467.08 46.88 483.32 64.15 503.45L69.16 499.15L71.19 497.34C53.37 477.31 29.81 459.89 4.61 448.29ZM4.61 439.39C3.28 436.74 1.94 434.09 0.6 431.44C24.89 420.59 46.88 404.35 64.15 384.22L69.16 388.51L71.19 390.33C53.37 410.36 29.81 427.78 4.61 439.39ZM4.61 576.42C3.28 579.07 1.94 581.72 0.6 584.36C24.89 595.21 46.88 611.45 64.15 631.59L69.16 627.29L71.19 625.47C53.37 605.45 29.81 588.03 4.61 576.42ZM4.61 567.52C3.28 564.87 1.94 562.22 0.6 559.58C24.89 548.73 46.88 532.49 64.15 512.35L69.16 516.65L71.19 518.47C53.37 538.49 29.81 555.91 4.61 567.52ZM4.61 704.56C3.28 707.21 1.94 709.85 0.6 712.5C24.89 723.35 46.88 739.59 64.15 759.72L69.16 755.43L71.19 753.61C53.37 733.59 29.81 716.16 4.61 704.56ZM4.61 695.66C3.28 693.01 1.94 690.36 0.6 687.72C24.89 676.87 46.88 660.62 64.15 640.49L69.16 644.79L71.19 646.61C53.37 666.63 29.81 684.05 4.61 695.66ZM4.61 832.7C3.28 835.34 1.94 837.99 0.6 840.64C24.89 851.49 46.88 867.73 64.15 887.86L69.16 883.57L71.19 881.75C53.37 861.72 29.81 844.3 4.61 832.7ZM4.61 823.79C3.28 821.15 1.94 818.5 0.6 815.85C24.89 805 46.88 788.76 64.15 768.63L69.16 772.92L71.19 774.74C53.37 794.77 29.81 812.19 4.61 823.79ZM4.61 960.83C3.28 963.48 1.94 966.13 0.6 968.77C24.89 979.62 46.88 995.87 64.15 1016L69.16 1011.7L71.19 1009.88C53.37 989.86 29.81 972.44 4.61 960.83ZM4.61 951.93C3.28 949.28 1.94 946.64 0.6 943.99C24.89 933.14 46.88 916.9 64.15 896.76L69.16 901.06L71.19 902.88C53.37 922.9 29.81 940.32 4.61 951.93Z" />
	</g>
</svg>