<svg xmlns="http://www.w3.org/2000/svg" viewBox="0 0 36 31" width="36" height="31">
	<defs>
		<clipPath clipPathUnits="userSpaceOnUse" id="cp1">
			<path d="M-194 -1150L1726 -1150L1726 2745L-194 2745Z" />
		</clipPath>
	</defs>
	<style>
		tspan { white-space:pre }
		.shp0 { fill: #ffffff } 
	</style>
	<g id="HAIR TRANSPLANT" clip-path="url(#cp1)">
		<g id="Selection tab">
			<path id="Icon map-hair-care" fill-rule="evenodd" class="shp0" d="M30.41 16.22C30.41 16.22 29.89 16.86 30.27 18.43L30.28 18.46C30.28 18.48 30.39 18.81 30.52 19.19L33.7 28.35C33.76 28.53 33.75 28.73 33.66 28.9C33.58 29.07 33.43 29.2 33.25 29.26L28.41 30.89C28.04 31.02 27.62 30.81 27.49 30.44L22.91 17.22C22.79 16.84 22.36 16.49 21.97 16.43L14.18 14.44C13.81 14.29 13.19 14.12 12.8 14.06L1.43 12.22C1.04 12.15 0.72 11.76 0.72 11.37L0.72 5.38C0.73 4.97 1.03 4.63 1.43 4.57L12.81 3.35C13.29 3.28 13.75 3.17 14.2 3.01C14.2 3.01 19.77 0.88 23.81 0.88C28.14 0.88 34.61 3.34 34.61 3.34C34.98 3.48 35.28 3.92 35.28 4.31L35.28 13.13C35.28 13.53 34.99 14 34.64 14.18L31.54 15.44C31.17 15.56 30.66 15.92 30.41 16.22ZM28.15 8.25C28.15 6.48 26.68 5.03 24.88 5.03C23.08 5.03 21.62 6.47 21.62 8.25C21.62 10.02 23.08 11.46 24.88 11.46C26.68 11.46 28.15 10.02 28.15 8.25Z" />
		</g>
	</g>
</svg>