  <svg
        xmlns="http://www.w3.org/2000/svg"
        width="150"
        height="150"
        viewBox="0 0 150.673 150.669"
      >
        <path
          id="Icon_awesome-certificate"
          data-name="Icon awesome-certificate"
          d="M131.286,73.26l13.164-12.883A6.82,6.82,0,0,0,141.4,48.829l-17.934-4.577L128.518,26.5a6.935,6.935,0,0,0-8.491-8.494l-17.746,5.057L97.705,5.123A6.868,6.868,0,0,0,86.162,2.069L73.283,15.335,60.4,2.069A6.868,6.868,0,0,0,48.861,5.123l-4.576,17.94L26.538,18.006A6.935,6.935,0,0,0,18.048,26.5L23.1,44.252,5.169,48.83A6.82,6.82,0,0,0,2.116,60.377L15.28,73.26,2.116,86.143A6.82,6.82,0,0,0,5.169,97.69L23.1,102.268,18.047,120.02a6.935,6.935,0,0,0,8.491,8.494l17.746-5.057L48.86,141.4A6.806,6.806,0,0,0,60.4,144.451l12.879-13.168,12.879,13.168A6.835,6.835,0,0,0,97.7,141.4l4.576-17.94,17.746,5.057a6.935,6.935,0,0,0,8.491-8.494l-5.056-17.752L141.4,97.69a6.82,6.82,0,0,0,3.053-11.547L131.286,73.26Z"
          transform="translate(2.054 2.054)"
          fill="none"
          stroke="#fff"
          strokeWidth="4"
        />
      </svg>