<svg
        xmlns="http://www.w3.org/2000/svg"
        width="150"
        height="150"
        viewBox="0 0 120.094 117.675"
      >
        <path
          id="Icon_map-doctor"
          data-name="Icon map-doctor"
          d="M102.118,29.743H90.209V17.1A16.22,16.22,0,0,0,74.019.72h-30.5A16.219,16.219,0,0,0,27.325,17.1v12.64H15.413A14.425,14.425,0,0,0,.72,44.1V99.748A14.668,14.668,0,0,0,15.413,114.4h86.705a14.672,14.672,0,0,0,14.7-14.65V44.1A14.428,14.428,0,0,0,102.118,29.743ZM37,17.1a6.985,6.985,0,0,1,6.518-6.709h30.5c3.384,0,6.516,3.326,6.516,6.709v12.64H37ZM85.372,82.953H68.441v16.93H49.092V82.953H32.162V63.6h16.93V46.674H68.441V63.6h16.93V82.953Z"
          transform="translate(1.28 1.28)"
          fill="none"
          stroke="#fff"
          stroke-width="4"
        />
      </svg>