<svg
        xmlns="http://www.w3.org/2000/svg"
        width="150"
        height="150"
        viewBox="0 0 156.483 105.566"
      >
        <path
          id="Icon_awesome-eye"
          data-name="Icon awesome-eye"
          d="M151.428,51.421C137.085,23.435,108.689,4.5,76.174,4.5S15.256,23.448.92,51.424a8.556,8.556,0,0,0,0,7.721c14.344,27.986,42.74,46.921,75.254,46.921s60.918-18.948,75.254-46.924A8.556,8.556,0,0,0,151.428,51.421ZM76.174,93.37a38.087,38.087,0,1,1,38.087-38.087A38.087,38.087,0,0,1,76.174,93.37Zm0-63.479a25.209,25.209,0,0,0-6.694,1A12.656,12.656,0,0,1,51.785,48.589a25.333,25.333,0,1,0,24.389-18.7Z"
          transform="translate(2.067 -2.5)"
          fill="none"
          stroke="#fff"
          strokeWidth="4"
        />
      </svg>