<svg
        xmlns="http://www.w3.org/2000/svg"
        width="150px"
        height="150"
        viewBox="0 0 119.5 136"
      >
        <path
          id="Icon_awesome-hospital"
          data-name="Icon awesome-hospital"
          d="M115.5,126.844V132H0v-5.156a3.094,3.094,0,0,1,3.094-3.094H8.25V30.938a6.187,6.187,0,0,1,6.188-6.187H37.125V6.188A6.187,6.187,0,0,1,43.313,0H72.188a6.187,6.187,0,0,1,6.188,6.188V24.75h22.688a6.187,6.187,0,0,1,6.188,6.188V123.75h5.156A3.094,3.094,0,0,1,115.5,126.844ZM79.406,49.5H69.094A3.094,3.094,0,0,0,66,52.594V62.906A3.094,3.094,0,0,0,69.094,66H79.406A3.094,3.094,0,0,0,82.5,62.906V52.594A3.094,3.094,0,0,0,79.406,49.5ZM36.094,66H46.406A3.094,3.094,0,0,0,49.5,62.906V52.594A3.094,3.094,0,0,0,46.406,49.5H36.094A3.094,3.094,0,0,0,33,52.594V62.906A3.094,3.094,0,0,0,36.094,66ZM62.906,99H52.594a3.094,3.094,0,0,0-3.094,3.094V123.75H66V102.094A3.094,3.094,0,0,0,62.906,99Zm16.5-24.75H69.094A3.094,3.094,0,0,0,66,77.344V87.656a3.094,3.094,0,0,0,3.094,3.094H79.406A3.094,3.094,0,0,0,82.5,87.656V77.344A3.094,3.094,0,0,0,79.406,74.25ZM49.5,77.344a3.094,3.094,0,0,0-3.094-3.094H36.094A3.094,3.094,0,0,0,33,77.344V87.656a3.094,3.094,0,0,0,3.094,3.094H46.406A3.094,3.094,0,0,0,49.5,87.656ZM46.922,24.75h6.7v6.7A1.547,1.547,0,0,0,55.172,33h5.156a1.547,1.547,0,0,0,1.547-1.547v-6.7h6.7A1.547,1.547,0,0,0,70.125,23.2V18.047A1.547,1.547,0,0,0,68.578,16.5h-6.7V9.8A1.547,1.547,0,0,0,60.328,8.25H55.172A1.547,1.547,0,0,0,53.625,9.8v6.7h-6.7a1.547,1.547,0,0,0-1.547,1.547V23.2A1.547,1.547,0,0,0,46.922,24.75Z"
          transform="translate(2 2)"
          fill="none"
          stroke="#fff"
          stroke-width="4"
        />
      </svg>