<svg width="156" height="54" viewBox="0 0 156 54" fill="none" xmlns="http://www.w3.org/2000/svg">
<rect width="156" height="53.2288" rx="8.49395" fill="black"/>
<path fill-rule="evenodd" clip-rule="evenodd" d="M28.8667 19.0486C29.5804 18.9863 30.0958 18.8957 30.447 18.7881C32.3728 18.1424 34.3779 15.1687 33.8511 12.8125C30.5603 13.5771 28.929 15.8371 28.8667 19.0486ZM39.0505 21.1103C38.2576 21.7787 37.6798 22.3734 37.3173 22.9058C35.0007 26.2476 37.1304 30.5467 39.7812 31.3566C39.0222 33.7469 36.6093 38.1365 34.0038 38.1365C33.2374 38.1365 32.5258 37.9006 31.8029 37.661C31.0567 37.4136 30.2985 37.1623 29.4556 37.1623C28.6195 37.1623 27.8897 37.4397 27.1914 37.7051C26.5511 37.9485 25.9374 38.1818 25.2925 38.1818C21.8658 38.1818 18.4843 31.0564 18.4843 26.5932C18.4843 22.5773 20.5744 18.7201 24.5165 18.7201C25.5697 18.7201 26.6376 19.0167 27.5552 19.2717C28.2465 19.4637 28.8525 19.632 29.3027 19.632C29.8456 19.632 30.4761 19.4327 31.1827 19.2094C32.0831 18.9248 33.107 18.6012 34.2304 18.6012C36.3261 18.6012 37.7874 19.5471 39.0505 21.1103Z" fill="black"/>
<mask id="mask0" mask-type="alpha" maskUnits="userSpaceOnUse" x="18" y="12" width="22" height="27">
<path fill-rule="evenodd" clip-rule="evenodd" d="M28.8667 19.0486C29.5804 18.9863 30.0958 18.8957 30.447 18.7881C32.3728 18.1424 34.3779 15.1687 33.8511 12.8125C30.5603 13.5771 28.929 15.8371 28.8667 19.0486ZM39.0505 21.1103C38.2576 21.7787 37.6798 22.3734 37.3173 22.9058C35.0007 26.2476 37.1304 30.5467 39.7812 31.3566C39.0222 33.7469 36.6093 38.1365 34.0038 38.1365C33.2374 38.1365 32.5258 37.9006 31.8029 37.661C31.0567 37.4136 30.2985 37.1623 29.4556 37.1623C28.6195 37.1623 27.8897 37.4397 27.1914 37.7051C26.5511 37.9485 25.9374 38.1818 25.2925 38.1818C21.8658 38.1818 18.4843 31.0564 18.4843 26.5932C18.4843 22.5773 20.5744 18.7201 24.5165 18.7201C25.5697 18.7201 26.6376 19.0167 27.5552 19.2717C28.2465 19.4637 28.8525 19.632 29.3027 19.632C29.8456 19.632 30.4761 19.4327 31.1827 19.2094C32.0831 18.9248 33.107 18.6012 34.2304 18.6012C36.3261 18.6012 37.7874 19.5471 39.0505 21.1103Z" fill="white"/>
</mask>
<g mask="url(#mask0)">
<rect x="14.6328" y="11" width="29" height="29" fill="white"/>
</g>
<path d="M53.0761 18.0605L51.9872 14.8916L50.83 18.0605H53.0761ZM51.4794 13.8271H52.5781L55.1806 21H54.1161L53.3886 18.8516H50.5517L49.7753 21H48.7792L51.4794 13.8271ZM55.5219 13.8271L57.5825 19.9355L59.6186 13.8271H60.7075L58.0903 21H57.06L54.4477 13.8271H55.5219ZM64.1982 18.0605L63.1094 14.8916L61.9522 18.0605H64.1982ZM62.6016 13.8271H63.7002L66.3027 21H65.2383L64.5107 18.8516H61.6738L60.8975 21H59.9014L62.6016 13.8271ZM67.0396 13.8271H68.021V21H67.0396V13.8271ZM69.2364 13.8271H70.2081V20.1455H73.8409V21H69.2364V13.8271ZM78.1178 18.0605L77.0289 14.8916L75.8717 18.0605H78.1178ZM76.5211 13.8271H77.6197L80.2223 21H79.1578L78.4303 18.8516H75.5934L74.817 21H73.8209L76.5211 13.8271ZM83.4347 16.8594C83.8449 16.8594 84.1639 16.8024 84.3917 16.6885C84.7498 16.5094 84.9288 16.1872 84.9288 15.7217C84.9288 15.2529 84.7384 14.9372 84.3576 14.7744C84.1427 14.6833 83.8237 14.6377 83.4005 14.6377H81.6671V16.8594H83.4347ZM83.7619 20.1699C84.3576 20.1699 84.7824 19.9974 85.0363 19.6523C85.1958 19.4342 85.2755 19.1706 85.2755 18.8613C85.2755 18.3405 85.0428 17.9857 84.5773 17.7969C84.3299 17.696 84.0027 17.6455 83.5958 17.6455H81.6671V20.1699H83.7619ZM80.715 13.8271H83.796C84.6359 13.8271 85.2332 14.0778 85.588 14.5791C85.7964 14.8753 85.9005 15.2171 85.9005 15.6045C85.9005 16.057 85.7719 16.4281 85.5148 16.7178C85.3813 16.8708 85.1893 17.0107 84.9386 17.1377C85.3064 17.2777 85.5815 17.4355 85.7638 17.6113C86.0861 17.9238 86.2472 18.3551 86.2472 18.9053C86.2472 19.3675 86.1023 19.7858 85.8126 20.1602C85.3797 20.7201 84.6912 21 83.7472 21H80.715V13.8271ZM87.0426 13.8271H88.0143V20.1455H91.6471V21H87.0426V13.8271ZM92.3352 13.8271H97.5647V14.7061H93.2824V16.8838H97.2424V17.7139H93.2824V20.1455H97.6379V21H92.3352V13.8271ZM104.058 13.6318C105.324 13.6318 106.262 14.0387 106.87 14.8525C107.346 15.4873 107.583 16.2995 107.583 17.2891C107.583 18.36 107.311 19.2503 106.768 19.96C106.13 20.7933 105.22 21.21 104.038 21.21C102.935 21.21 102.067 20.8454 101.436 20.1162C100.873 19.4131 100.591 18.5244 100.591 17.4502C100.591 16.4801 100.832 15.6501 101.314 14.96C101.932 14.0745 102.847 13.6318 104.058 13.6318ZM104.156 20.3408C105.012 20.3408 105.63 20.0348 106.011 19.4229C106.395 18.8076 106.587 18.1012 106.587 17.3037C106.587 16.4606 106.366 15.7819 105.923 15.2676C105.484 14.7533 104.881 14.4961 104.116 14.4961C103.374 14.4961 102.769 14.7516 102.3 15.2627C101.831 15.7705 101.597 16.5208 101.597 17.5137C101.597 18.3079 101.797 18.9785 102.198 19.5254C102.601 20.069 103.254 20.3408 104.156 20.3408ZM108.379 13.8271H109.526L113.149 19.6377V13.8271H114.072V21H112.983L109.306 15.1943V21H108.379V13.8271ZM122.699 13.8271V14.6816H120.282V21H119.296V14.6816H116.879V13.8271H122.699ZM123.25 13.8271H124.232V16.791H127.962V13.8271H128.944V21H127.962V17.6455H124.232V21H123.25V13.8271ZM130.179 13.8271H135.408V14.7061H131.126V16.8838H135.086V17.7139H131.126V20.1455H135.481V21H130.179V13.8271Z" fill="white"/>
<path d="M52.454 33.1924H55.0107L53.7529 29.2275L52.454 33.1924ZM52.5839 26.9238H54.9628L58.5312 37H56.248L55.5986 34.9287H51.8867L51.1894 37H48.9882L52.5839 26.9238ZM64.2796 33.2744C64.2796 32.7002 64.1474 32.1921 63.8831 31.75C63.6233 31.3079 63.1995 31.0869 62.6116 31.0869C61.9052 31.0869 61.4199 31.4219 61.1556 32.0918C61.0188 32.4473 60.9505 32.8984 60.9505 33.4453C60.9505 34.3112 61.1806 34.9196 61.6409 35.2705C61.9143 35.4756 62.2379 35.5781 62.6116 35.5781C63.1539 35.5781 63.5664 35.3685 63.8489 34.9492C64.136 34.5299 64.2796 33.9717 64.2796 33.2744ZM63.1722 29.3848C64.0426 29.3848 64.7786 29.7061 65.3802 30.3486C65.9863 30.9912 66.2893 31.9346 66.2893 33.1787C66.2893 34.4912 65.9931 35.4915 65.4007 36.1797C64.8128 36.8678 64.054 37.2119 63.1243 37.2119C62.5319 37.2119 62.0397 37.0638 61.6477 36.7676C61.4335 36.6035 61.2239 36.3643 61.0188 36.0498V39.9326H59.0911V29.5488H60.9573V30.6494C61.1669 30.3258 61.3903 30.0706 61.6272 29.8838C62.0602 29.5511 62.5751 29.3848 63.1722 29.3848ZM72.3248 33.2744C72.3248 32.7002 72.1927 32.1921 71.9284 31.75C71.6686 31.3079 71.2448 31.0869 70.6569 31.0869C69.9505 31.0869 69.4651 31.4219 69.2008 32.0918C69.0641 32.4473 68.9957 32.8984 68.9957 33.4453C68.9957 34.3112 69.2259 34.9196 69.6862 35.2705C69.9596 35.4756 70.2832 35.5781 70.6569 35.5781C71.1992 35.5781 71.6116 35.3685 71.8942 34.9492C72.1813 34.5299 72.3248 33.9717 72.3248 33.2744ZM71.2174 29.3848C72.0879 29.3848 72.8239 29.7061 73.4254 30.3486C74.0315 30.9912 74.3346 31.9346 74.3346 33.1787C74.3346 34.4912 74.0384 35.4915 73.4459 36.1797C72.858 36.8678 72.0992 37.2119 71.1696 37.2119C70.5771 37.2119 70.0849 37.0638 69.693 36.7676C69.4788 36.6035 69.2692 36.3643 69.0641 36.0498V39.9326H67.1364V29.5488H69.0026V30.6494C69.2122 30.3258 69.4355 30.0706 69.6725 29.8838C70.1054 29.5511 70.6204 29.3848 71.2174 29.3848ZM80.3011 33.8896C80.3649 34.3499 80.4902 34.694 80.6771 34.9219C81.0189 35.3366 81.6045 35.5439 82.4339 35.5439C82.9307 35.5439 83.334 35.4893 83.6439 35.3799C84.2318 35.1702 84.5257 34.7806 84.5257 34.2109C84.5257 33.8783 84.3799 33.6208 84.0882 33.4385C83.7965 33.2607 83.3385 33.1035 82.7142 32.9668L81.6478 32.7275C80.5996 32.4906 79.875 32.2331 79.4739 31.9551C78.7949 31.4902 78.4554 30.7633 78.4554 29.7744C78.4554 28.8721 78.7835 28.1224 79.4398 27.5254C80.096 26.9284 81.0599 26.6299 82.3314 26.6299C83.3932 26.6299 84.2978 26.9124 85.0452 27.4775C85.7972 28.0381 86.1914 28.8538 86.2279 29.9248H84.2044C84.168 29.3187 83.9036 28.888 83.4114 28.6328C83.0833 28.4642 82.6754 28.3799 82.1878 28.3799C81.6455 28.3799 81.2126 28.4893 80.889 28.708C80.5654 28.9268 80.4036 29.2321 80.4036 29.624C80.4036 29.984 80.5631 30.2529 80.8822 30.4307C81.0872 30.5492 81.5247 30.6882 82.1947 30.8477L83.931 31.2646C84.692 31.4469 85.2663 31.6908 85.6536 31.9961C86.2552 32.4701 86.556 33.1559 86.556 34.0537C86.556 34.9743 86.2028 35.7399 85.4964 36.3506C84.7946 36.9567 83.8011 37.2598 82.5159 37.2598C81.2034 37.2598 80.1712 36.9613 79.4193 36.3643C78.6673 35.7627 78.2913 34.9378 78.2913 33.8896H80.3011ZM86.6784 31.0049V29.6172H87.7175V27.5391H89.6452V29.6172H90.8551V31.0049H89.6452V34.9424C89.6452 35.2477 89.6839 35.4391 89.7614 35.5166C89.8389 35.5895 90.0759 35.626 90.4723 35.626C90.5316 35.626 90.5931 35.626 90.6569 35.626C90.7253 35.6214 90.7913 35.6169 90.8551 35.6123V37.0684L89.9323 37.1025C89.0117 37.1344 88.3828 36.9749 88.0456 36.624C87.8268 36.4007 87.7175 36.0566 87.7175 35.5918V31.0049H86.6784ZM94.9356 35.626C95.5052 35.626 95.9427 35.4232 96.2481 35.0176C96.5534 34.612 96.7061 34.0355 96.7061 33.2881C96.7061 32.5407 96.5534 31.9665 96.2481 31.5654C95.9427 31.1598 95.5052 30.957 94.9356 30.957C94.3659 30.957 93.9261 31.1598 93.6162 31.5654C93.3109 31.9665 93.1582 32.5407 93.1582 33.2881C93.1582 34.0355 93.3109 34.612 93.6162 35.0176C93.9261 35.4232 94.3659 35.626 94.9356 35.626ZM98.75 33.2881C98.75 34.3818 98.4356 35.3184 97.8067 36.0977C97.1777 36.8724 96.223 37.2598 94.9424 37.2598C93.6618 37.2598 92.707 36.8724 92.0781 36.0977C91.4492 35.3184 91.1348 34.3818 91.1348 33.2881C91.1348 32.2126 91.4492 31.2806 92.0781 30.4922C92.707 29.7038 93.6618 29.3096 94.9424 29.3096C96.223 29.3096 97.1777 29.7038 97.8067 30.4922C98.4356 31.2806 98.75 32.2126 98.75 33.2881ZM103.685 29.3711C103.721 29.3711 103.751 29.3734 103.774 29.3779C103.801 29.3779 103.858 29.3802 103.945 29.3848V31.3809C103.822 31.3672 103.712 31.3581 103.617 31.3535C103.521 31.349 103.443 31.3467 103.384 31.3467C102.6 31.3467 102.074 31.6019 101.805 32.1123C101.655 32.3994 101.579 32.8415 101.579 33.4385V37H99.6175V29.5488H101.477V30.8477C101.778 30.3509 102.04 30.0114 102.263 29.8291C102.628 29.5238 103.102 29.3711 103.685 29.3711ZM107.519 30.957C107.068 30.957 106.717 31.0983 106.467 31.3809C106.22 31.6634 106.065 32.0462 106.002 32.5293H109.03C108.998 32.0143 108.841 31.6247 108.558 31.3604C108.28 31.0915 107.934 30.957 107.519 30.957ZM107.519 29.3506C108.139 29.3506 108.697 29.4668 109.194 29.6992C109.691 29.9316 110.101 30.2985 110.425 30.7998C110.716 31.2419 110.905 31.7546 110.992 32.3379C111.042 32.6797 111.063 33.1719 111.053 33.8145H105.954C105.981 34.5618 106.216 35.0859 106.658 35.3867C106.927 35.5736 107.25 35.667 107.629 35.667C108.03 35.667 108.356 35.5531 108.606 35.3252C108.743 35.2021 108.864 35.0312 108.968 34.8125H110.958C110.908 35.2546 110.677 35.7035 110.267 36.1592C109.629 36.8838 108.736 37.2461 107.588 37.2461C106.64 37.2461 105.803 36.9408 105.079 36.3301C104.354 35.7194 103.992 34.7259 103.992 33.3496C103.992 32.0599 104.318 31.071 104.969 30.3828C105.626 29.6947 106.476 29.3506 107.519 29.3506Z" fill="white"/>
</svg>
