<svg width="157" height="54" viewBox="0 0 157 54" fill="none" xmlns="http://www.w3.org/2000/svg">
<rect x="0.632751" width="156" height="53.2288" rx="8.49395" fill="black"/>
<path fill-rule="evenodd" clip-rule="evenodd" d="M38.8118 20.7689H24.7026C24.7026 18.3446 26.1526 16.2376 28.3049 15.1388L27.2231 13.1394C27.0645 12.8618 27.4667 12.6862 27.6026 12.9241L28.7014 14.9405C30.6782 14.0626 32.9495 14.1079 34.8356 14.9405L35.9288 12.9298C36.0704 12.6862 36.4669 12.8675 36.3083 13.145L35.2264 15.1388C37.3618 16.2376 38.8118 18.3446 38.8118 20.7689ZM24.153 29.146V22.587C24.153 21.7317 23.4507 21.0294 22.5954 21.0294C21.7288 21.0294 20.8905 21.7317 20.8905 22.587V29.146C20.8905 30.0126 21.7288 30.7149 22.5954 30.7149C23.4677 30.7149 24.153 30.0183 24.153 29.146ZM26.4414 33.1561C25.5125 33.1561 24.7648 32.4085 24.7648 31.4796V21.3183H38.7721V31.4796C38.7721 32.4085 38.0244 33.1561 37.1068 33.1561H35.9627V36.6169C35.9627 38.7013 32.8191 38.6956 32.8191 36.6169V33.1561H30.7121V36.6169C30.7121 38.6899 27.5855 38.7069 27.5855 36.6169L27.5685 33.1561H26.4414ZM28.5483 17.0306C28.8825 17.0306 29.143 17.3024 29.143 17.6253C29.143 17.9482 28.8825 18.22 28.5483 18.22C28.2311 18.22 27.9706 17.9482 27.9706 17.6253C27.9706 17.3024 28.2255 17.0306 28.5483 17.0306ZM35.5662 17.6253C35.5662 17.3024 35.3056 17.0306 34.9884 17.0306C34.6543 17.0306 34.3937 17.3024 34.3937 17.6253C34.3937 17.9482 34.6543 18.22 34.9884 18.22C35.3056 18.22 35.5662 17.9482 35.5662 17.6253ZM39.3781 22.587C39.3781 21.7148 40.0804 21.0294 40.9357 21.0294C41.8023 21.0294 42.6406 21.7148 42.6406 22.587V29.146C42.6406 30.0126 41.808 30.7149 40.9357 30.7149C40.0804 30.7149 39.3781 30.0183 39.3781 29.146V22.587Z" fill="black"/>
<mask id="mask0" mask-type="alpha" maskUnits="userSpaceOnUse" x="20" y="12" width="23" height="27">
<path fill-rule="evenodd" clip-rule="evenodd" d="M38.8118 20.7689H24.7026C24.7026 18.3446 26.1526 16.2376 28.3049 15.1388L27.2231 13.1394C27.0645 12.8618 27.4667 12.6862 27.6026 12.9241L28.7014 14.9405C30.6782 14.0626 32.9495 14.1079 34.8356 14.9405L35.9288 12.9298C36.0704 12.6862 36.4669 12.8675 36.3083 13.145L35.2264 15.1388C37.3618 16.2376 38.8118 18.3446 38.8118 20.7689ZM24.153 29.146V22.587C24.153 21.7317 23.4507 21.0294 22.5954 21.0294C21.7288 21.0294 20.8905 21.7317 20.8905 22.587V29.146C20.8905 30.0126 21.7288 30.7149 22.5954 30.7149C23.4677 30.7149 24.153 30.0183 24.153 29.146ZM26.4414 33.1561C25.5125 33.1561 24.7648 32.4085 24.7648 31.4796V21.3183H38.7721V31.4796C38.7721 32.4085 38.0244 33.1561 37.1068 33.1561H35.9627V36.6169C35.9627 38.7013 32.8191 38.6956 32.8191 36.6169V33.1561H30.7121V36.6169C30.7121 38.6899 27.5855 38.7069 27.5855 36.6169L27.5685 33.1561H26.4414ZM28.5483 17.0306C28.8825 17.0306 29.143 17.3024 29.143 17.6253C29.143 17.9482 28.8825 18.22 28.5483 18.22C28.2311 18.22 27.9706 17.9482 27.9706 17.6253C27.9706 17.3024 28.2255 17.0306 28.5483 17.0306ZM35.5662 17.6253C35.5662 17.3024 35.3056 17.0306 34.9884 17.0306C34.6543 17.0306 34.3937 17.3024 34.3937 17.6253C34.3937 17.9482 34.6543 18.22 34.9884 18.22C35.3056 18.22 35.5662 17.9482 35.5662 17.6253ZM39.3781 22.587C39.3781 21.7148 40.0804 21.0294 40.9357 21.0294C41.8023 21.0294 42.6406 21.7148 42.6406 22.587V29.146C42.6406 30.0126 41.808 30.7149 40.9357 30.7149C40.0804 30.7149 39.3781 30.0183 39.3781 29.146V22.587Z" fill="white"/>
</mask>
<g mask="url(#mask0)">
<rect x="17.2655" y="11" width="29" height="29" fill="white"/>
</g>
<path d="M55.1278 13.6416C55.8016 13.6416 56.3843 13.7718 56.8759 14.0322C57.5887 14.4066 58.0249 15.0625 58.1844 16H57.2225C57.1053 15.4759 56.8628 15.0951 56.495 14.8574C56.1272 14.6165 55.6633 14.4961 55.1034 14.4961C54.4393 14.4961 53.8794 14.7451 53.4237 15.2432C52.9712 15.7412 52.745 16.4834 52.745 17.4697C52.745 18.3226 52.9322 19.0176 53.3065 19.5547C53.6809 20.0885 54.2912 20.3555 55.1376 20.3555C55.7854 20.3555 56.3208 20.1683 56.744 19.7939C57.1705 19.4163 57.3885 18.8076 57.3983 17.9678H55.1522V17.1621H58.3016V21H57.6766L57.4423 20.0771C57.1135 20.4385 56.8221 20.6891 56.5682 20.8291C56.1418 21.07 55.5998 21.1904 54.9423 21.1904C54.0927 21.1904 53.3619 20.9154 52.7499 20.3652C52.0826 19.6751 51.7489 18.7279 51.7489 17.5234C51.7489 16.3223 52.0744 15.3669 52.7255 14.6572C53.344 13.9801 54.1447 13.6416 55.1278 13.6416ZM59.5365 13.8271H64.766V14.7061H60.4838V16.8838H64.4438V17.7139H60.4838V20.1455H64.8393V21H59.5365V13.8271ZM70.9667 13.8271V14.6816H68.5497V21H67.5634V14.6816H65.1464V13.8271H70.9667ZM73.9541 13.8271H74.9356V21H73.9541V13.8271ZM81.3706 13.8271V14.6816H78.9537V21H77.9673V14.6816H75.5503V13.8271H81.3706ZM87.234 13.6318C88.5003 13.6318 89.4378 14.0387 90.0465 14.8525C90.5218 15.4873 90.7594 16.2995 90.7594 17.2891C90.7594 18.36 90.4876 19.2503 89.944 19.96C89.3059 20.7933 88.3961 21.21 87.2145 21.21C86.1109 21.21 85.2434 20.8454 84.6119 20.1162C84.0488 19.4131 83.7672 18.5244 83.7672 17.4502C83.7672 16.4801 84.0081 15.6501 84.4899 14.96C85.1083 14.0745 86.0231 13.6318 87.234 13.6318ZM87.3316 20.3408C88.1878 20.3408 88.8063 20.0348 89.1871 19.4229C89.5712 18.8076 89.7633 18.1012 89.7633 17.3037C89.7633 16.4606 89.5419 15.7819 89.0992 15.2676C88.6598 14.7533 88.0576 14.4961 87.2926 14.4961C86.5504 14.4961 85.9449 14.7516 85.4762 15.2627C85.0074 15.7705 84.7731 16.5208 84.7731 17.5137C84.7731 18.3079 84.9733 18.9785 85.3736 19.5254C85.7773 20.069 86.43 20.3408 87.3316 20.3408ZM91.5548 13.8271H92.7023L96.3253 19.6377V13.8271H97.2482V21H96.1593L92.4826 15.1943V21H91.5548V13.8271Z" fill="white"/>
<path d="M59.1063 30.0684C58.9468 29.3802 58.5572 28.8994 57.9374 28.626C57.591 28.4756 57.2059 28.4004 56.7821 28.4004C55.9709 28.4004 55.3033 28.708 54.7792 29.3232C54.2596 29.9339 53.9999 30.8545 53.9999 32.085C53.9999 33.3245 54.2824 34.2018 54.8475 34.7168C55.4126 35.2318 56.0552 35.4893 56.7753 35.4893C57.4816 35.4893 58.0604 35.2865 58.5116 34.8809C58.9628 34.4707 59.2408 33.9352 59.3456 33.2744H57.0145V31.5928H61.2118V37H59.8173L59.6053 35.7422C59.1997 36.2207 58.8352 36.5579 58.5116 36.7539C57.9556 37.0957 57.272 37.2666 56.4608 37.2666C55.1255 37.2666 54.0318 36.804 53.1796 35.8789C52.2909 34.9492 51.8466 33.6777 51.8466 32.0645C51.8466 30.4329 52.2955 29.125 53.1932 28.1406C54.091 27.1562 55.2782 26.6641 56.7548 26.6641C58.0354 26.6641 59.063 26.9899 59.8378 27.6416C60.6171 28.2887 61.0637 29.0977 61.1776 30.0684H59.1063ZM65.9006 35.626C66.4703 35.626 66.9078 35.4232 67.2131 35.0176C67.5184 34.612 67.6711 34.0355 67.6711 33.2881C67.6711 32.5407 67.5184 31.9665 67.2131 31.5654C66.9078 31.1598 66.4703 30.957 65.9006 30.957C65.3309 30.957 64.8912 31.1598 64.5813 31.5654C64.2759 31.9665 64.1233 32.5407 64.1233 33.2881C64.1233 34.0355 64.2759 34.612 64.5813 35.0176C64.8912 35.4232 65.3309 35.626 65.9006 35.626ZM69.7151 33.2881C69.7151 34.3818 69.4006 35.3184 68.7717 36.0977C68.1428 36.8724 67.188 37.2598 65.9074 37.2598C64.6268 37.2598 63.6721 36.8724 63.0432 36.0977C62.4143 35.3184 62.0998 34.3818 62.0998 33.2881C62.0998 32.2126 62.4143 31.2806 63.0432 30.4922C63.6721 29.7038 64.6268 29.3096 65.9074 29.3096C67.188 29.3096 68.1428 29.7038 68.7717 30.4922C69.4006 31.2806 69.7151 32.2126 69.7151 33.2881ZM73.9459 35.626C74.5155 35.626 74.953 35.4232 75.2584 35.0176C75.5637 34.612 75.7164 34.0355 75.7164 33.2881C75.7164 32.5407 75.5637 31.9665 75.2584 31.5654C74.953 31.1598 74.5155 30.957 73.9459 30.957C73.3762 30.957 72.9364 31.1598 72.6265 31.5654C72.3212 31.9665 72.1685 32.5407 72.1685 33.2881C72.1685 34.0355 72.3212 34.612 72.6265 35.0176C72.9364 35.4232 73.3762 35.626 73.9459 35.626ZM77.7603 33.2881C77.7603 34.3818 77.4459 35.3184 76.817 36.0977C76.1881 36.8724 75.2333 37.2598 73.9527 37.2598C72.6721 37.2598 71.7174 36.8724 71.0884 36.0977C70.4595 35.3184 70.1451 34.3818 70.1451 33.2881C70.1451 32.2126 70.4595 31.2806 71.0884 30.4922C71.7174 29.7038 72.6721 29.3096 73.9527 29.3096C75.2333 29.3096 76.1881 29.7038 76.817 30.4922C77.4459 31.2806 77.7603 32.2126 77.7603 33.2881ZM81.8476 35.4004C82.3033 35.4004 82.6884 35.2295 83.0028 34.8877C83.3173 34.5413 83.4745 33.9922 83.4745 33.2402C83.4745 32.5339 83.3241 31.9961 83.0234 31.627C82.7271 31.2578 82.3284 31.0732 81.8271 31.0732C81.1435 31.0732 80.6718 31.3945 80.412 32.0371C80.2753 32.3789 80.2069 32.8005 80.2069 33.3018C80.2069 33.7347 80.2799 34.1198 80.4257 34.457C80.69 35.0859 81.164 35.4004 81.8476 35.4004ZM81.3622 29.3711C81.7359 29.3711 82.0618 29.4281 82.3398 29.542C82.8137 29.738 83.1965 30.098 83.4882 30.6221V29.5488H85.3818V36.6172C85.3818 37.5788 85.22 38.3034 84.8964 38.791C84.3404 39.6296 83.274 40.0488 81.6972 40.0488C80.7447 40.0488 79.9677 39.862 79.3661 39.4883C78.7646 39.1146 78.4319 38.5563 78.3681 37.8135H80.4872C80.5419 38.0413 80.6308 38.2054 80.7538 38.3057C80.9635 38.4834 81.3166 38.5723 81.8134 38.5723C82.5152 38.5723 82.9846 38.3376 83.2216 37.8682C83.3765 37.5674 83.454 37.0615 83.454 36.3506V35.8721C83.2672 36.1911 83.0666 36.4303 82.8525 36.5898C82.4651 36.8861 81.9615 37.0342 81.3417 37.0342C80.3847 37.0342 79.6191 36.6992 79.0448 36.0293C78.4752 35.3548 78.1903 34.4434 78.1903 33.2949C78.1903 32.1875 78.4661 31.2578 79.0175 30.5059C79.5689 29.7493 80.3505 29.3711 81.3622 29.3711ZM88.6829 37H86.7346V26.9238H88.6829V37ZM93.0162 30.957C92.565 30.957 92.2141 31.0983 91.9635 31.3809C91.7174 31.6634 91.5624 32.0462 91.4986 32.5293H94.527C94.4951 32.0143 94.3378 31.6247 94.0553 31.3604C93.7773 31.0915 93.4309 30.957 93.0162 30.957ZM93.0162 29.3506C93.636 29.3506 94.1943 29.4668 94.691 29.6992C95.1878 29.9316 95.5979 30.2985 95.9215 30.7998C96.2132 31.2419 96.4023 31.7546 96.4889 32.3379C96.539 32.6797 96.5595 33.1719 96.5504 33.8145H91.4508C91.4781 34.5618 91.7128 35.0859 92.1549 35.3867C92.4238 35.5736 92.7473 35.667 93.1256 35.667C93.5266 35.667 93.8525 35.5531 94.1031 35.3252C94.2399 35.2021 94.3606 35.0312 94.4654 34.8125H96.4547C96.4046 35.2546 96.1744 35.7035 95.7643 36.1592C95.1262 36.8838 94.233 37.2461 93.0846 37.2461C92.1367 37.2461 91.3004 36.9408 90.5758 36.3301C89.8512 35.7194 89.4889 34.7259 89.4889 33.3496C89.4889 32.0599 89.8147 31.071 90.4664 30.3828C91.1227 29.6947 91.9726 29.3506 93.0162 29.3506ZM106.571 30.1299C106.571 29.6058 106.432 29.2321 106.154 29.0088C105.88 28.7855 105.495 28.6738 104.998 28.6738H103.036V31.6406H104.998C105.495 31.6406 105.88 31.5199 106.154 31.2783C106.432 31.0368 106.571 30.654 106.571 30.1299ZM108.656 30.1162C108.656 31.3057 108.355 32.1465 107.753 32.6387C107.152 33.1309 106.293 33.377 105.176 33.377H103.036V37H100.945V26.9238H105.333C106.345 26.9238 107.152 27.1836 107.753 27.7031C108.355 28.2227 108.656 29.027 108.656 30.1162ZM111.553 37H109.605V26.9238H111.553V37ZM117.056 33.377C116.933 33.4544 116.807 33.5182 116.68 33.5684C116.557 33.6139 116.386 33.6572 116.167 33.6982L115.729 33.7803C115.319 33.8532 115.025 33.9421 114.848 34.0469C114.547 34.2246 114.396 34.5003 114.396 34.874C114.396 35.2067 114.488 35.4482 114.67 35.5986C114.857 35.7445 115.082 35.8174 115.347 35.8174C115.766 35.8174 116.151 35.6943 116.502 35.4482C116.857 35.2021 117.042 34.7533 117.056 34.1016V33.377ZM115.873 32.4678C116.233 32.4222 116.491 32.3652 116.646 32.2969C116.923 32.1784 117.062 31.9938 117.062 31.7432C117.062 31.4378 116.955 31.2282 116.741 31.1143C116.532 30.9958 116.222 30.9365 115.812 30.9365C115.351 30.9365 115.025 31.0505 114.834 31.2783C114.697 31.4469 114.606 31.6748 114.561 31.9619H112.681C112.722 31.3102 112.904 30.7747 113.228 30.3555C113.743 29.6992 114.627 29.3711 115.88 29.3711C116.696 29.3711 117.42 29.5329 118.054 29.8564C118.687 30.18 119.004 30.7907 119.004 31.6885V35.1064C119.004 35.3434 119.008 35.6305 119.018 35.9678C119.031 36.223 119.07 36.3962 119.134 36.4873C119.198 36.5785 119.293 36.6536 119.421 36.7129V37H117.302C117.243 36.8496 117.201 36.7083 117.179 36.5762C117.156 36.444 117.138 36.2936 117.124 36.125C116.855 36.4167 116.545 36.665 116.194 36.8701C115.775 37.1117 115.301 37.2324 114.772 37.2324C114.098 37.2324 113.54 37.041 113.098 36.6582C112.66 36.2708 112.441 35.724 112.441 35.0176C112.441 34.1016 112.795 33.4385 113.501 33.0283C113.888 32.805 114.458 32.6455 115.21 32.5498L115.873 32.4678ZM120.528 38.4287L120.774 38.4424C120.965 38.4515 121.147 38.4447 121.321 38.4219C121.494 38.3991 121.64 38.3467 121.758 38.2646C121.872 38.1872 121.977 38.0254 122.073 37.7793C122.173 37.5332 122.214 37.3828 122.196 37.3281L119.461 29.5488H121.628L123.255 35.0449L124.793 29.5488H126.865L124.308 36.877C123.816 38.2897 123.426 39.1647 123.139 39.502C122.852 39.8438 122.278 40.0146 121.416 40.0146C121.243 40.0146 121.104 40.0124 120.999 40.0078C120.895 40.0078 120.737 40.001 120.528 39.9873V38.4287Z" fill="white"/>
</svg>
