<svg id="Layer_1" data-name="Layer 1" xmlns="http://www.w3.org/2000/svg" viewBox="0 0 540.95 154.8"><defs><style>.cls-1{fill:#fff;}.cls-2{fill:#1d455c;}.cls-3{fill:#55b047;}</style></defs><rect class="cls-1" width="540.95" height="155.63"/><path class="cls-2" d="M38.17,71.68c-3,0-5.31-.69-6.92-2.06a7.28,7.28,0,0,1-2.4-5.83A18.17,18.17,0,0,1,31,55.71L34.28,57A15.8,15.8,0,0,0,33,62.55q0,4.65,6.06,4.65c3.6,0,5.86-1,6.8-3.08a36.42,36.42,0,0,1-5.59-1.44l.85-4.12a36.2,36.2,0,0,0,9.29,1.27h.49v4.72h-.42c-.53,0-.92,0-1.18,0a8,8,0,0,1-3.52,5.21A13.4,13.4,0,0,1,38.17,71.68Zm3.18,6.54L38.73,76l-2,2.29L34,76l2.29-2.65,2.62,2.26,2-2.36,2.75,2.36Z"/><path class="cls-2" d="M82.28,64.55a9.69,9.69,0,0,1-5.07-1.28,29.1,29.1,0,0,1-9.95,1.41c-4.27,0-7.6-.64-10-1.9q-1.66,1.77-5.59,1.77H50.9c-.28,0-.53-.23-.73-.69a4.52,4.52,0,0,1,0-3.34c.2-.46.45-.69.73-.69h.75c1.47,0,2.42-.22,2.85-.67a2.75,2.75,0,0,0,.66-2V52.57l3.92-.3V56.2A16.18,16.18,0,0,1,59,58.49l.49.2a20.79,20.79,0,0,1,5.89-7.12,11.76,11.76,0,0,1,6.81-2.18,7.15,7.15,0,0,1,5.42,2.15,7.8,7.8,0,0,1,2,5.61,19.36,19.36,0,0,1-.16,2.42,14.66,14.66,0,0,0,2.71.26h.95v4.72ZM68.15,59.87a30,30,0,0,0,7.69-.82,5.8,5.8,0,0,0-1.21-3.88,4.1,4.1,0,0,0-3.21-1.33,7.13,7.13,0,0,0-4.11,1.33,18.16,18.16,0,0,0-4.1,4.4A34.86,34.86,0,0,0,68.15,59.87Z"/><path class="cls-2" d="M114.48,64.55a9.69,9.69,0,0,1-5.07-1.28,29.1,29.1,0,0,1-10,1.41c-4.27,0-7.6-.64-10-1.9q-1.67,1.77-5.59,1.77H83.1c-.28,0-.53-.23-.73-.69a4.65,4.65,0,0,1,0-3.34c.2-.46.45-.69.73-.69h.75c1.47,0,2.42-.22,2.85-.67a2.75,2.75,0,0,0,.66-2V52.57l3.92-.3V56.2a16.18,16.18,0,0,1-.13,2.29l.49.2a20.79,20.79,0,0,1,5.89-7.12,11.76,11.76,0,0,1,6.81-2.18,7.15,7.15,0,0,1,5.42,2.15,7.8,7.8,0,0,1,2,5.61,19.36,19.36,0,0,1-.16,2.42,14.66,14.66,0,0,0,2.71.26h1v4.72Zm-14.13-4.68a30,30,0,0,0,7.69-.82,5.8,5.8,0,0,0-1.21-3.88,4.1,4.1,0,0,0-3.21-1.33,7.13,7.13,0,0,0-4.11,1.33,18.16,18.16,0,0,0-4.1,4.4A34.86,34.86,0,0,0,100.35,59.87Z"/><path class="cls-2" d="M115.3,64.55c-.28,0-.53-.23-.73-.69a4.52,4.52,0,0,1,0-3.34c.2-.46.45-.69.73-.69h1.25A68.5,68.5,0,0,0,128.72,59c-3.3-3.14-5.53-4.71-6.71-4.71a2.09,2.09,0,0,0-1.24.34,4,4,0,0,0-1,1.33l-2.91-1.11a8.77,8.77,0,0,1,2.26-3.65,4.64,4.64,0,0,1,3.14-1.13q2.48,0,6.48,3.47.67.58,3.5,3.17a16.34,16.34,0,0,0,3.32,2.57,7,7,0,0,0,3.09.57h.49v4.72h-.68a9.72,9.72,0,0,1-3.23-.48,10,10,0,0,1-2.83-1.65,62.84,62.84,0,0,1-16.59,2.13Zm8.54-21.44,3,2.59-2.48,2.81-3-2.49Z"/><path class="cls-2" d="M139.09,64.55c-.28,0-.53-.23-.73-.69a4.52,4.52,0,0,1,0-3.34c.2-.46.45-.69.73-.69h.49a6.23,6.23,0,0,0,3.52-.68,2.41,2.41,0,0,0,.87-2V52.57l3.93-.3v4.45a15.38,15.38,0,0,1-.2,2.56,14.29,14.29,0,0,0,4.25.55h.2v4.72h-.88A9.38,9.38,0,0,1,145.64,63c-1.22,1-3.1,1.51-5.63,1.51Zm6.51-14.27L143,48.09l-2,2.29-2.75-2.29,2.29-2.66,2.62,2.26,2-2.35,2.75,2.35Z"/><path class="cls-2" d="M152.15,64.55c-.28,0-.53-.23-.74-.69a4.65,4.65,0,0,1,0-3.34c.21-.46.46-.69.74-.69h.26a16,16,0,0,0,3.53-.36c.09-1.37.14-3.14.14-5.3q0-4.68-.1-13l4.19-.36q0,8.61,0,12.66c0,2.49,0,4.43-.15,5.81a15.93,15.93,0,0,1-.67,3.72,13,13,0,0,1-3.14,1.08,17.72,17.72,0,0,1-3.9.46Z"/><path class="cls-2" d="M168.48,64.55h-4.16V41.18l4.16-.36Z"/><path class="cls-2" d="M189.39,71.68q-4.51,0-6.92-2.06a7.25,7.25,0,0,1-2.41-5.83,18.17,18.17,0,0,1,2.16-8.08L185.49,57a15.75,15.75,0,0,0-1.27,5.53c0,3.1,2,4.65,6.05,4.65q5.4,0,6.81-3.08a36.24,36.24,0,0,1-5.6-1.44l.85-4.12a36.28,36.28,0,0,0,9.3,1.27h.49v4.72h-.43c-.52,0-.91,0-1.18,0A7.9,7.9,0,0,1,197,69.72,13.4,13.4,0,0,1,189.39,71.68Z"/><path class="cls-2" d="M221.59,64.58a5.57,5.57,0,0,1-4.45-1.7c-1,1.22-2.76,1.83-5.21,1.83a8.72,8.72,0,0,1-5.13-1.44,7.11,7.11,0,0,1-4.32,1.28h-.36c-.29,0-.53-.23-.74-.69a4.65,4.65,0,0,1,0-3.34c.21-.46.45-.69.74-.69H203a2.93,2.93,0,0,0,2.08-.65,3.83,3.83,0,0,0,.87-2.46l.16-2.32,3.7-.29-.17,2.68a15.19,15.19,0,0,1-.29,2.29,5.51,5.51,0,0,0,2.75.65,4.1,4.1,0,0,0,2.39-.65,2.33,2.33,0,0,0,.95-2.06V53.91l3.73-.26v3.79c0,1.6.85,2.39,2.55,2.39a7,7,0,0,0,2.75-.52,34.73,34.73,0,0,0-.95-6.32l3.89-.85a23.81,23.81,0,0,1,.69,5.37,17.79,17.79,0,0,1-.69,5.46A11.74,11.74,0,0,1,221.59,64.58Z"/><path class="cls-2" d="M235.14,71.48a14.2,14.2,0,0,1-3.6-.49l.39-3.89a14.68,14.68,0,0,0,2.62.23,8.68,8.68,0,0,0,4.58-1,5,5,0,0,0,2.19-2.36,29.68,29.68,0,0,1-3.4.17q-3.54,0-5-1.66a6.7,6.7,0,0,1-1.42-4.53,8.9,8.9,0,0,1,1.88-5.76,5.8,5.8,0,0,1,4.73-2.35,6.14,6.14,0,0,1,5.12,2.68,12.51,12.51,0,0,1,2.11,7.36h1.9v4.72h-2.43Q243,71.48,235.14,71.48Zm4.18-11.65h2.36a9.08,9.08,0,0,0-1.1-4A3,3,0,0,0,237.92,54a2.45,2.45,0,0,0-2.1,1,3.67,3.67,0,0,0-.72,2.23,2.19,2.19,0,0,0,1,1.94A5.88,5.88,0,0,0,239.32,59.83Z"/><path class="cls-2" d="M267.64,64.55a6.29,6.29,0,0,1-4.22-1.25,10.58,10.58,0,0,1-5.3,1.28,12.79,12.79,0,0,1-6.6-1.57,5.59,5.59,0,0,1-4,1.54h-.26c-.29,0-.53-.23-.74-.69a4.65,4.65,0,0,1,0-3.34c.21-.46.45-.69.74-.69h.55a2.87,2.87,0,0,0,1.21-.24,3,3,0,0,0,1-.9,10,10,0,0,0,.75-1.17c.17-.33.46-.88.84-1.64l.07-.13a1.31,1.31,0,0,0,.09-.17l.1-.19a12.57,12.57,0,0,1,2.73-3.74,5.76,5.76,0,0,1,3.94-1.27q4.51,0,6.05,6.38a5.36,5.36,0,0,0,1,2.48,3.15,3.15,0,0,0,2.21.59h.72v4.72Zm-9.05-4.29a8.71,8.71,0,0,0,3-.49,17.15,17.15,0,0,0-1.33-4,2,2,0,0,0-1.91-1.15,2.73,2.73,0,0,0-2,.82,14.36,14.36,0,0,0-2.15,3.41l-.3.59A12.93,12.93,0,0,0,258.59,60.26Z"/><path class="cls-2" d="M268.61,64.55c-.28,0-.53-.23-.74-.69a4.65,4.65,0,0,1,0-3.34c.21-.46.46-.69.74-.69h.26a16.19,16.19,0,0,0,3.54-.36c.08-1.37.13-3.14.13-5.3q0-4.68-.1-13l4.19-.36q0,8.61,0,12.66c0,2.49-.05,4.43-.15,5.81a15.43,15.43,0,0,1-.67,3.72,13,13,0,0,1-3.14,1.08,17.7,17.7,0,0,1-3.89.46Z"/><path class="cls-2" d="M284.94,64.55h-4.16V41.18l4.16-.36Z"/><path class="cls-2" d="M305.85,71.68q-4.52,0-6.92-2.06a7.29,7.29,0,0,1-2.41-5.83,18.17,18.17,0,0,1,2.16-8.08L302,57a15.57,15.57,0,0,0-1.28,5.53q0,4.65,6.05,4.65,5.4,0,6.81-3.08a36.54,36.54,0,0,1-5.6-1.44l.85-4.12a36.28,36.28,0,0,0,9.3,1.27h.49v4.72h-.43c-.52,0-.91,0-1.17,0a8,8,0,0,1-3.52,5.21A13.4,13.4,0,0,1,305.85,71.68Z"/><path class="cls-2" d="M318.58,64.55c-.28,0-.53-.23-.74-.69a4.65,4.65,0,0,1,0-3.34c.21-.46.46-.69.74-.69h.82a26.61,26.61,0,0,0,3.37-.23,6.77,6.77,0,0,1-1.9-4.81,6.35,6.35,0,0,1,1.93-5,6.88,6.88,0,0,1,4.78-1.74,6.68,6.68,0,0,1,4.63,1.7,6,6,0,0,1,1.88,4.65,7.1,7.1,0,0,1-2.19,5.2,29.74,29.74,0,0,0,3.6.23h1v4.72h-1.93A17.56,17.56,0,0,1,327,63.17a20.59,20.59,0,0,1-7.66,1.38Zm5.63-9.72q0,2.28,3.07,4,3.32-1.5,3.31-3.54a2.79,2.79,0,0,0-.95-2.16,3.52,3.52,0,0,0-2.42-.85,3.1,3.1,0,0,0-2.14.76A2.3,2.3,0,0,0,324.21,54.83Zm2.88-13.58,3,2.58-2.49,2.82-3-2.49Z"/><path class="cls-2" d="M356,64.68a5.4,5.4,0,0,1-4.39-1.77c-1,1.2-2.76,1.8-5.2,1.8a8.78,8.78,0,0,1-5.14-1.44,7.07,7.07,0,0,1-4.32,1.28h-.36c-.28,0-.52-.23-.73-.69a4.65,4.65,0,0,1,0-3.34c.21-.46.45-.69.73-.69h.89a3,3,0,0,0,2.08-.65,3.89,3.89,0,0,0,.86-2.46l.17-2.35,3.69-.26-.16,2.68a15.19,15.19,0,0,1-.29,2.29,5.43,5.43,0,0,0,2.71.65,4.07,4.07,0,0,0,2.42-.67,2.3,2.3,0,0,0,.95-2V53.94l3.73-.23v3.73c0,1.6.85,2.39,2.56,2.39s2.55-.73,2.55-2.19V53.45l3.7-.33v4.46a15,15,0,0,1-.1,1.7,7.93,7.93,0,0,0,3.6.55h.42v4.72h-.65a9.07,9.07,0,0,1-5.07-1.48A6.38,6.38,0,0,1,356,64.68Zm-1.9-13.49-2.58-2.12-2.07,2.32-2.68-2.22L349,46.55l2.58,2.22,2.06-2.42,2.72,2.32Zm-3.11-8.54,2.52,2.13-2.06,2.36-2.52-2.07Z"/><path class="cls-2" d="M366.32,64.55c-.28,0-.53-.23-.73-.69a4.65,4.65,0,0,1,0-3.34c.2-.46.45-.69.73-.69h.49a6.23,6.23,0,0,0,3.52-.68,2.41,2.41,0,0,0,.87-2V52.57l3.92-.3v4.45a15.44,15.44,0,0,1-.19,2.56,14.29,14.29,0,0,0,4.25.55h.2v4.72h-.88A9.38,9.38,0,0,1,372.87,63c-1.23,1-3.1,1.51-5.63,1.51Zm6.51-14.27-2.61-2.19-2,2.29-2.75-2.29,2.29-2.66,2.62,2.26,2-2.35,2.74,2.35Z"/><path class="cls-2" d="M398.78,64.68a5.37,5.37,0,0,1-4.38-1.77q-1.54,1.8-5.2,1.8a8.76,8.76,0,0,1-5.14-1.44,7.11,7.11,0,0,1-4.32,1.28h-.36c-.28,0-.53-.23-.74-.69a4.65,4.65,0,0,1,0-3.34c.21-.46.46-.69.74-.69h.88a2.93,2.93,0,0,0,2.08-.65,3.83,3.83,0,0,0,.87-2.46l.16-2.35,3.7-.26-.16,2.68a15.36,15.36,0,0,1-.3,2.29,5.47,5.47,0,0,0,2.72.65,4.07,4.07,0,0,0,2.42-.67,2.32,2.32,0,0,0,.95-2V53.94l3.73-.23v3.73c0,1.6.85,2.39,2.55,2.39s2.55-.73,2.55-2.19V53.45l3.7-.33v4.46a13,13,0,0,1-.1,1.7,7.93,7.93,0,0,0,3.6.55h.43v4.72h-.66a9.12,9.12,0,0,1-5.07-1.48A6.36,6.36,0,0,1,398.78,64.68Z"/><path class="cls-2" d="M420.22,64.58a13.4,13.4,0,0,1-6.78-1.64,5.44,5.44,0,0,1-4,1.61h-.26c-.29,0-.53-.23-.74-.69a4.65,4.65,0,0,1,0-3.34c.21-.46.45-.69.74-.69h.55a2.52,2.52,0,0,0,2-.91,16.1,16.1,0,0,0,1.78-3l.1-.2.08-.16a1.67,1.67,0,0,0,.08-.2,12.78,12.78,0,0,1,2.73-3.73,5.83,5.83,0,0,1,4-1.27A5.51,5.51,0,0,1,425,52.57a8.46,8.46,0,0,1,1.73,5.4,14.8,14.8,0,0,1-1.11,5.89A16.78,16.78,0,0,1,420.22,64.58Zm.75-4.32a18.86,18.86,0,0,0,2-.1,12.28,12.28,0,0,0,.13-1.64,5,5,0,0,0-.72-2.79,2.3,2.3,0,0,0-2-1.1,2.84,2.84,0,0,0-2.06.83,14.32,14.32,0,0,0-2.16,3.42,5.15,5.15,0,0,0-.26.56A14.09,14.09,0,0,0,421,60.26Z"/><path class="cls-2" d="M44.94,107.83q-.91-3.17-2.12-6.72H32.51q-1.21,3.56-2.13,6.72H28A185,185,0,0,1,36.42,85h2.45a172.88,172.88,0,0,1,8.48,22.84ZM37.66,87.4Q35.61,92,33.19,99.05h8.94Q39.72,92,37.66,87.4Z"/><path class="cls-2" d="M53,84.2v19a4.36,4.36,0,0,0,.49,2.35,1.88,1.88,0,0,0,1.7.75,7.07,7.07,0,0,0,.94-.1l.2,1.86a6.81,6.81,0,0,1-1.47.2q-4.14,0-4.14-5V84.37Z"/><path class="cls-2" d="M62.43,94.09v13.74H60.14V92.65A14.58,14.58,0,0,1,66.83,91a6.2,6.2,0,0,1,4.67,1.7A11.36,11.36,0,0,1,77.34,91a6.37,6.37,0,0,1,4.75,1.62A6,6,0,0,1,83.67,97v10.84H81.38V97.13a4.31,4.31,0,0,0-1-3A4,4,0,0,0,77.27,93a8.2,8.2,0,0,0-4.7,1.44A8.47,8.47,0,0,1,73,97.29v10.54H70.78V97.13q0-4.16-4-4.15A8.73,8.73,0,0,0,62.43,94.09Z"/><path class="cls-2" d="M101.09,93.34a11,11,0,0,1,0,12.53,7.51,7.51,0,0,1-10.91,0,10.9,10.9,0,0,1,0-12.53,7.51,7.51,0,0,1,10.91,0Zm-9.25,1.42a9.74,9.74,0,0,0,0,9.69,4.36,4.36,0,0,0,3.77,1.78,4.41,4.41,0,0,0,3.82-1.76,10,10,0,0,0,0-9.73A4.41,4.41,0,0,0,95.61,93,4.36,4.36,0,0,0,91.84,94.76Z"/><path class="cls-2" d="M119.59,93.34a11,11,0,0,1,0,12.53,7.51,7.51,0,0,1-10.91,0,10.9,10.9,0,0,1,0-12.53,7.51,7.51,0,0,1,10.91,0Zm-9.25,1.42a9.74,9.74,0,0,0,0,9.69,4.36,4.36,0,0,0,3.77,1.78,4.41,4.41,0,0,0,3.82-1.76,10,10,0,0,0,0-9.73A4.41,4.41,0,0,0,114.11,93,4.36,4.36,0,0,0,110.34,94.76Z"/><path class="cls-2" d="M135.22,91.81l-.32,1.92a13.76,13.76,0,0,0-4.18-.75q-3.5,0-3.49,2.61a2.67,2.67,0,0,0,.24,1.18,2.12,2.12,0,0,0,.85.83,9,9,0,0,0,1.08.54c.31.13.79.29,1.42.49a12.75,12.75,0,0,1,4.17,1.92,3.63,3.63,0,0,1,1.31,3,4,4,0,0,1-1.66,3.49,7.39,7.39,0,0,1-4.38,1.18,15.63,15.63,0,0,1-3-.31,12.45,12.45,0,0,1-2.4-.67l.39-2a14.43,14.43,0,0,0,5,1,4.85,4.85,0,0,0,2.77-.69,2.21,2.21,0,0,0,1-2,2.06,2.06,0,0,0-1-1.82,14.77,14.77,0,0,0-3.36-1.35,9.84,9.84,0,0,1-3.53-1.74,3.8,3.8,0,0,1-1.24-3.06,4.16,4.16,0,0,1,1.49-3.44A6.55,6.55,0,0,1,130.59,91,12,12,0,0,1,135.22,91.81Z"/><path class="cls-2" d="M151.67,106.69a12.39,12.39,0,0,1-6.37,1.53,7,7,0,0,1-4.56-1.32,4.31,4.31,0,0,1-1.6-3.51,4.23,4.23,0,0,1,1.76-3.74,8,8,0,0,1,4.57-1.25,18.49,18.49,0,0,1,3.95.45V97q0-4-4.28-4a10.86,10.86,0,0,0-4.4.85l-.53-1.89a12.77,12.77,0,0,1,5.09-1,6.63,6.63,0,0,1,4.77,1.55,6,6,0,0,1,1.6,4.52Zm-6.17-.3a7.27,7.27,0,0,0,3.92-.91v-5a18,18,0,0,0-3.72-.46q-4.27,0-4.28,3.26a2.65,2.65,0,0,0,1.06,2.29A5.05,5.05,0,0,0,145.5,106.39Z"/><path class="cls-2" d="M163.67,107l.46-2.09a18.36,18.36,0,0,0,6.2,1.24,6.7,6.7,0,0,0,4-1,4.1,4.1,0,0,0,0-6.16,16.1,16.1,0,0,0-4.44-2,12,12,0,0,1-4.6-2.44,5.35,5.35,0,0,1-1.5-4,5.21,5.21,0,0,1,2-4.37,8.45,8.45,0,0,1,5.35-1.53,15.22,15.22,0,0,1,5.48,1l-.49,2a16.54,16.54,0,0,0-4.83-.88c-3.37,0-5.06,1.27-5.06,3.79a3.38,3.38,0,0,0,1.13,2.76,11.31,11.31,0,0,0,3.7,1.74c.94.31,1.69.57,2.25.8a17.17,17.17,0,0,1,1.9.93A5.59,5.59,0,0,1,176.82,98a5.75,5.75,0,0,1,1,1.71,6.7,6.7,0,0,1,.39,2.35A5.31,5.31,0,0,1,176,106.7a9.59,9.59,0,0,1-5.58,1.52A17.11,17.11,0,0,1,163.67,107Z"/><path class="cls-2" d="M188.67,91a7.18,7.18,0,0,1,5.69,2.24,8.68,8.68,0,0,1,2,6,10.18,10.18,0,0,1-2,6.53,7,7,0,0,1-5.84,2.45,8.59,8.59,0,0,1-3.75-.82v6.49H182.5V92.52A13.17,13.17,0,0,1,188.67,91Zm-3.88,2.94v11.39a7.69,7.69,0,0,0,3.52.91,5.07,5.07,0,0,0,4.21-1.8A8.09,8.09,0,0,0,194,99.25a7.23,7.23,0,0,0-1.33-4.52A4.77,4.77,0,0,0,188.57,93,7.5,7.5,0,0,0,184.79,93.93Z"/><path class="cls-2" d="M214,107.08a12.91,12.91,0,0,1-5.52,1.14,8.38,8.38,0,0,1-6.18-2.25,8.62,8.62,0,0,1-2.27-6.4,9.21,9.21,0,0,1,2-6.2,6.86,6.86,0,0,1,5.5-2.38,6.16,6.16,0,0,1,4.89,2,7.51,7.51,0,0,1,1.76,5.13,19,19,0,0,1-.09,1.92H202.34a6.44,6.44,0,0,0,1.78,4.62,6.3,6.3,0,0,0,4.49,1.55,12.55,12.55,0,0,0,4.92-1.08ZM207.53,93a4.59,4.59,0,0,0-3.59,1.48,6.72,6.72,0,0,0-1.57,4h9.53a5,5,0,0,0,0-.62,5.41,5.41,0,0,0-1.11-3.46A4,4,0,0,0,207.53,93Z"/><path class="cls-2" d="M225.67,91a11,11,0,0,1,4.7,1l-.49,1.86A11.09,11.09,0,0,0,225.8,93a5.05,5.05,0,0,0-4.19,1.8,7.57,7.57,0,0,0-1.45,4.92,7,7,0,0,0,1.53,4.87,5.8,5.8,0,0,0,4.47,1.66,8.92,8.92,0,0,0,3.91-1l.46,1.89a9.45,9.45,0,0,1-4.47,1A8.11,8.11,0,0,1,220,106a8.61,8.61,0,0,1-2.15-6.26,9.37,9.37,0,0,1,2.07-6.37A7.25,7.25,0,0,1,225.67,91Z"/><path class="cls-2" d="M237.07,87.52A1.45,1.45,0,0,1,236,88a1.48,1.48,0,0,1-1.13-.44,1.62,1.62,0,0,1-.41-1.13,1.43,1.43,0,0,1,1.54-1.5,1.43,1.43,0,0,1,1.53,1.5A1.57,1.57,0,0,1,237.07,87.52Zm0,3.86v16.45h-2.28V91.38Z"/><path class="cls-2" d="M254.29,106.69a12.44,12.44,0,0,1-6.37,1.53,7,7,0,0,1-4.57-1.32,4.33,4.33,0,0,1-1.59-3.51,4.23,4.23,0,0,1,1.76-3.74,8,8,0,0,1,4.57-1.25,18.4,18.4,0,0,1,3.94.45V97q0-4-4.27-4a10.94,10.94,0,0,0-4.41.85l-.52-1.89a12.77,12.77,0,0,1,5.09-1,6.63,6.63,0,0,1,4.77,1.55,6,6,0,0,1,1.6,4.52Zm-6.17-.3a7.21,7.21,0,0,0,3.91-.91v-5a17.87,17.87,0,0,0-3.72-.46q-4.27,0-4.27,3.26a2.65,2.65,0,0,0,1.06,2.29A5,5,0,0,0,248.12,106.39Z"/><path class="cls-2" d="M262.12,84.2v19a4.36,4.36,0,0,0,.49,2.35,1.86,1.86,0,0,0,1.69.75,7.18,7.18,0,0,0,.95-.1l.19,1.86a6.65,6.65,0,0,1-1.46.2q-4.16,0-4.15-5V84.37Z"/><path class="cls-2" d="M271.63,87.52a1.48,1.48,0,0,1-1.13.44,1.45,1.45,0,0,1-1.12-.44,1.57,1.57,0,0,1-.41-1.13,1.43,1.43,0,0,1,1.53-1.5,1.43,1.43,0,0,1,1.54,1.5A1.62,1.62,0,0,1,271.63,87.52Zm0,3.86v16.45h-2.28V91.38Z"/><path class="cls-2" d="M286.49,91.81l-.33,1.92A13.65,13.65,0,0,0,282,93q-3.5,0-3.49,2.61a2.67,2.67,0,0,0,.24,1.18,2.06,2.06,0,0,0,.85.83,9,9,0,0,0,1.08.54c.31.13.78.29,1.42.49a12.75,12.75,0,0,1,4.17,1.92,3.63,3.63,0,0,1,1.31,3A4,4,0,0,1,285.9,107a7.36,7.36,0,0,1-4.37,1.18,15.55,15.55,0,0,1-3-.31,12,12,0,0,1-2.4-.67l.39-2a14.39,14.39,0,0,0,5,1,4.85,4.85,0,0,0,2.77-.69,2.2,2.2,0,0,0,1-2,2,2,0,0,0-1-1.82,14.38,14.38,0,0,0-3.36-1.35,9.87,9.87,0,0,1-3.52-1.74,3.8,3.8,0,0,1-1.24-3.06,4.15,4.15,0,0,1,1.48-3.44,6.58,6.58,0,0,1,4.2-1.19A12,12,0,0,1,286.49,91.81Z"/><path class="cls-2" d="M299.15,107.89a9.5,9.5,0,0,1-2.45.33q-4.79,0-4.79-5.22V93.31h-2.48V91.38h2.48V87.5l2.28-.16v4h4.44v1.93h-4.44V103a3.57,3.57,0,0,0,.7,2.48,2.76,2.76,0,0,0,2.11.75,7.16,7.16,0,0,0,2-.26Z"/><path class="cls-2" d="M325.32,107.83V97.09H313v10.74h-2.34V85H313V95.07h12.34V85h2.35v22.84Z"/><path class="cls-2" d="M345.55,93.34a11,11,0,0,1,0,12.53,7.52,7.52,0,0,1-10.92,0,10.95,10.95,0,0,1,0-12.53,7.52,7.52,0,0,1,10.92,0Zm-9.25,1.42a9.74,9.74,0,0,0,0,9.69,4.35,4.35,0,0,0,3.77,1.78,4.4,4.4,0,0,0,3.81-1.76,9.89,9.89,0,0,0,0-9.73A4.4,4.4,0,0,0,340.07,93,4.35,4.35,0,0,0,336.3,94.76Z"/><path class="cls-2" d="M361.18,91.81l-.33,1.92a13.71,13.71,0,0,0-4.18-.75c-2.32,0-3.49.87-3.49,2.61a2.54,2.54,0,0,0,.25,1.18,2,2,0,0,0,.85.83,9.78,9.78,0,0,0,1.07.54c.32.13.79.29,1.42.49a12.71,12.71,0,0,1,4.18,1.92,3.62,3.62,0,0,1,1.3,3,4,4,0,0,1-1.66,3.49,7.38,7.38,0,0,1-4.37,1.18,15.55,15.55,0,0,1-3.05-.31,12,12,0,0,1-2.4-.67l.39-2a14.39,14.39,0,0,0,5,1,4.87,4.87,0,0,0,2.77-.69,2.22,2.22,0,0,0,1-2,2.06,2.06,0,0,0-1-1.82,14.38,14.38,0,0,0-3.36-1.35,9.79,9.79,0,0,1-3.52-1.74,3.8,3.8,0,0,1-1.24-3.06,4.15,4.15,0,0,1,1.48-3.44A6.57,6.57,0,0,1,356.54,91,12.05,12.05,0,0,1,361.18,91.81Z"/><path class="cls-2" d="M372.47,91a7.18,7.18,0,0,1,5.69,2.24,8.68,8.68,0,0,1,2,6,10.18,10.18,0,0,1-2,6.53,7,7,0,0,1-5.84,2.45,8.67,8.67,0,0,1-3.76-.82v6.49H366.3V92.52A13.17,13.17,0,0,1,372.47,91Zm-3.89,2.94v11.39a7.73,7.73,0,0,0,3.53.91,5.07,5.07,0,0,0,4.21-1.8,8.15,8.15,0,0,0,1.43-5.18,7.23,7.23,0,0,0-1.33-4.52A4.77,4.77,0,0,0,372.37,93,7.56,7.56,0,0,0,368.58,93.93Z"/><path class="cls-2" d="M387.23,87.52a1.45,1.45,0,0,1-1.12.44,1.48,1.48,0,0,1-1.13-.44,1.62,1.62,0,0,1-.41-1.13,1.43,1.43,0,0,1,1.54-1.5,1.48,1.48,0,0,1,1.12.42,1.51,1.51,0,0,1,.41,1.08A1.62,1.62,0,0,1,387.23,87.52Zm0,3.86v16.45H385V91.38Z"/><path class="cls-2" d="M400.66,107.89a9.5,9.5,0,0,1-2.45.33q-4.8,0-4.8-5.22V93.31h-2.48V91.38h2.48V87.5l2.29-.16v4h4.44v1.93H395.7V103a3.57,3.57,0,0,0,.7,2.48,2.75,2.75,0,0,0,2.1.75,7.23,7.23,0,0,0,2-.26Z"/><path class="cls-2" d="M415.57,106.69a12.38,12.38,0,0,1-6.36,1.53,7,7,0,0,1-4.57-1.32,4.31,4.31,0,0,1-1.6-3.51,4.26,4.26,0,0,1,1.76-3.74,8.06,8.06,0,0,1,4.57-1.25,18.49,18.49,0,0,1,3.95.45V97q0-4-4.28-4a10.86,10.86,0,0,0-4.4.85l-.52-1.89a12.7,12.7,0,0,1,5.09-1A6.59,6.59,0,0,1,414,92.54a6,6,0,0,1,1.6,4.52Zm-6.17-.3a7.24,7.24,0,0,0,3.92-.91v-5a18,18,0,0,0-3.72-.46q-4.28,0-4.27,3.26a2.67,2.67,0,0,0,1.05,2.29A5.05,5.05,0,0,0,409.4,106.39Z"/><path class="cls-2" d="M423.4,84.2v19a4.36,4.36,0,0,0,.49,2.35,1.88,1.88,0,0,0,1.7.75,7.07,7.07,0,0,0,.94-.1l.2,1.86a6.81,6.81,0,0,1-1.47.2q-4.14,0-4.14-5V84.37Z"/><rect class="cls-3" x="473.16" y="70.9" width="3.93" height="55.05"/><path class="cls-3" d="M473.16,122c-2.39-7-8.71-12.13-14.27-16.69-6.66-5.46-12.84-11-15.23-18.71l3.75-1.16c2.07,6.67,7.55,11.57,14,16.83,6,4.9,12.74,10.45,15.49,18.45Z"/><path class="cls-3" d="M454.2,100.87a19.37,19.37,0,0,1-.35-14.71l3.67,1.41a15.47,15.47,0,0,0,.27,11.71Z"/><path class="cls-3" d="M477.16,95.38A82.36,82.36,0,0,0,441,64.6l-1.57,3.6A78.43,78.43,0,0,1,474.1,97.89L477,96.05C477.05,95.82,477.1,95.6,477.16,95.38Z"/><path class="cls-3" d="M453.66,75.71a43.75,43.75,0,0,0-5.2-19.1l3.46-1.86a47.72,47.72,0,0,1,5.66,20.82Z"/><path class="cls-3" d="M476.78,122l-3.72-1.28c2.75-8,9.52-13.55,15.5-18.45,6.41-5.26,11.89-10.16,14-16.83l3.76,1.16c-2.4,7.71-8.57,13.25-15.23,18.71C485.48,109.9,479.17,115.08,476.78,122Z"/><path class="cls-3" d="M495.74,100.87l-3.6-1.59a15.42,15.42,0,0,0,.28-11.71l3.66-1.41A19.37,19.37,0,0,1,495.74,100.87Z"/><path class="cls-3" d="M509,64.6a82.4,82.4,0,0,0-35.69,30,5.16,5.16,0,0,1,.16,1.25,4.58,4.58,0,0,1,0,.53l2.41,1.53A78.48,78.48,0,0,1,510.54,68.2Z"/><path class="cls-3" d="M496.28,75.71l-3.93-.14A47.72,47.72,0,0,1,498,54.75l3.46,1.86A43.74,43.74,0,0,0,496.28,75.71Z"/><path class="cls-3" d="M473.13,75.31a216.52,216.52,0,0,0-24-29.85L452,42.74A221,221,0,0,1,476.4,73.13Z"/><path class="cls-3" d="M464.89,59.59l-3.75-1.16A197.35,197.35,0,0,1,468.72,38l3.6,1.56A196,196,0,0,0,464.89,59.59Z"/><path class="cls-3" d="M477,74.39l-3.27-2.18A219.77,219.77,0,0,1,498.1,41.82l2.83,2.72A216.67,216.67,0,0,0,477,74.39Z"/><path class="cls-3" d="M485.19,58.66a195.78,195.78,0,0,0-7.43-20l3.61-1.57A203.85,203.85,0,0,1,489,57.5Z"/><path class="cls-3" d="M485.79,30.46h2.73a8.77,8.77,0,0,1,8.77,8.77v0A2.73,2.73,0,0,1,494.56,42h0a8.77,8.77,0,0,1-8.77-8.77V30.46a0,0,0,0,1,0,0Z" transform="translate(358.8 -438.46) rotate(70.16)"/><path class="cls-3" d="M469.6,50.12h2.73a8.77,8.77,0,0,1,8.77,8.77v0a2.73,2.73,0,0,1-2.73,2.73h0a8.77,8.77,0,0,1-8.77-8.77V50.12A0,0,0,0,1,469.6,50.12Z" transform="translate(178.73 -319.76) rotate(45)"/><path class="cls-3" d="M502.69,56.24h1.89a6.06,6.06,0,0,1,6.06,6.06v0a1.89,1.89,0,0,1-1.89,1.89h0a6.06,6.06,0,0,1-6.06-6.06V56.24A0,0,0,0,1,502.69,56.24Z" transform="translate(668.99 -423.51) rotate(101.77)"/><path class="cls-3" d="M499,73h2.73a8.77,8.77,0,0,1,8.77,8.77v0a2.73,2.73,0,0,1-2.73,2.73h0A8.77,8.77,0,0,1,499,75.75V73a0,0,0,0,1,0,0Z" transform="translate(708.61 -389.62) rotate(104.65)"/><path class="cls-3" d="M446.26,56.24h0a1.89,1.89,0,0,1,1.89,1.89v0a6.06,6.06,0,0,1-6.06,6.06H440.2a0,0,0,0,1,0,0V62.3a6.06,6.06,0,0,1,6.06-6.06Z" transform="translate(412.5 -386.9) rotate(78.23)"/><path class="cls-3" d="M449.13,73h0a2.73,2.73,0,0,1,2.73,2.73v0a8.77,8.77,0,0,1-8.77,8.77h-2.73a0,0,0,0,1,0,0V81.78A8.77,8.77,0,0,1,449.13,73Z" transform="translate(409.47 -372.77) rotate(75.35)"/><path class="cls-3" d="M461.46,30.46h0a2.73,2.73,0,0,1,2.73,2.73v0A8.77,8.77,0,0,1,455.42,42h-2.73a0,0,0,0,1,0,0V39.22a8.77,8.77,0,0,1,8.77-8.77Z" transform="translate(648.06 -382.75) rotate(109.84)"/><path class="cls-3" d="M468.07,93.71h0A1.89,1.89,0,0,1,470,95.6v0a6.06,6.06,0,0,1-6.06,6.06H462a0,0,0,0,1,0,0V99.77A6.06,6.06,0,0,1,468.07,93.71Z" transform="translate(659.26 -337.43) rotate(102.11)"/><path class="cls-3" d="M468.07,70.7h0A1.89,1.89,0,0,1,470,72.59v0a6.06,6.06,0,0,1-6.06,6.06H462a0,0,0,0,1,0,0V76.76A6.06,6.06,0,0,1,468.07,70.7Z" transform="translate(636.76 -365.27) rotate(102.11)"/><path class="cls-3" d="M479.7,93.71h1.89a6.06,6.06,0,0,1,6.06,6.06v0a1.89,1.89,0,0,1-1.89,1.89h0a6.06,6.06,0,0,1-6.06-6.06V93.71A0,0,0,0,1,479.7,93.71Z" transform="translate(477.71 -395.72) rotate(77.89)"/><path class="cls-3" d="M479.7,70.7h1.89a6.06,6.06,0,0,1,6.06,6.06v0a1.89,1.89,0,0,1-1.89,1.89h0a6.06,6.06,0,0,1-6.06-6.06V70.7A0,0,0,0,1,479.7,70.7Z" transform="translate(455.21 -413.91) rotate(77.89)"/></svg>